<svg width="830" height="554" viewBox="0 0 830 554" xmlns="http://www.w3.org/2000/svg"><title>Artboard</title><g fill="#28512D"><path d="M2.4 365.3v-11.2H7c.5 0 .9.1 1.4.2.4.1.8.3 1.1.6.3.2.6.5.7.9.1.4.3.7.3 1.1 0 .5-.2 1-.5 1.4-.3.4-.8.8-1.3 1.1.8.2 1.4.6 1.8 1.1.4.5.6 1.1.6 1.7 0 .4-.1.8-.2 1.2-.1.4-.4.7-.7 1-.3.3-.7.5-1.1.7-.5.2-1 .3-1.6.3H2.4v-.1zm4-6.5c.3 0 .6 0 .9-.1.3-.1.6-.2.8-.4.2-.2.4-.3.6-.6.1-.2.2-.5.2-.7 0-.3-.1-.5-.2-.7-.1-.2-.3-.4-.5-.5-.2-.1-.5-.2-.8-.3-.3-.1-.6-.1-1-.1H3.8v3.4h2.6zm-2.6 5.3h2.7c.4 0 .8 0 1.2-.1.4-.1.7-.2.9-.3.2-.1.5-.4.6-.6.1-.2.2-.5.2-.9 0-.3-.1-.6-.3-.9-.2-.3-.4-.5-.7-.6-.3-.2-.7-.3-1.1-.4-.4-.1-.9-.1-1.4-.1H3.8v3.9zm12.5-3.5c.4-.1.8-.2 1.1-.2.4-.1.7-.2.9-.3 0-.5-.2-.9-.5-1.2-.3-.2-.8-.4-1.4-.4-.5 0-.9.1-1.2.3-.3.2-.5.5-.6 1h-1.5c0-.4.2-.8.3-1.1.2-.3.4-.6.7-.8.3-.2.6-.4.9-.5.3-.1.7-.2 1.1-.2 1.1 0 2 .2 2.6.7.6.5.9 1.2.9 2.3v3.5c0 .3 0 .4.1.5.1.1.3.1.4 0 .1 0 .2-.1.3-.2l.1 1.1c-.2.1-.3.2-.5.3h-.5c-.1 0-.2 0-.3-.1-.1-.1-.2-.1-.3-.3-.1-.1-.2-.3-.3-.5-.1-.2-.1-.4-.1-.7-.3.4-.7.8-1.2 1.1-.5.3-1.1.4-1.7.4-.4 0-.8 0-1.1-.1-.3-.1-.6-.2-.9-.4-.3-.2-.4-.4-.6-.7-.2-.3-.2-.7-.2-1.1 0-.4.1-.8.3-1.1.2-.3.5-.5.8-.7.3-.2.7-.3 1.1-.4.5 0 .9-.1 1.3-.2zm-2 2.5c0 .4.2.7.5.9.3.2.7.3 1.1.3.4 0 .7-.1 1-.3.3-.2.6-.4.8-.7.2-.3.4-.6.5-.9.1-.3.2-.7.2-1-.2.1-.5.2-.7.2-.3.1-.6.1-.8.2-.3.1-.6.1-.9.2-.3.1-.6.2-.8.3-.2.1-.4.2-.6.4-.2.2-.3.2-.3.4zm7.9-3.7c0-.4.1-.7.3-1 .2-.3.4-.5.7-.7.3-.2.6-.3 1-.4.4-.1.8-.1 1.1-.1.4 0 .8.1 1.2.2.4.1.7.3 1 .5.3.2.5.5.7.8.2.3.3.7.3 1.1h-1.4c0-.2-.1-.4-.2-.6-.1-.2-.2-.3-.4-.4-.2-.1-.4-.2-.6-.2-.2 0-.4-.1-.7-.1-.5 0-.9.1-1.2.3-.3.2-.5.4-.5.7 0 .1.1.3.2.4.1.1.3.2.4.3.1.1.4.2.7.2.3.1.5.1.8.2.3.1.7.2 1 .3.4.1.7.2 1 .4.3.2.5.4.7.7.2.3.3.6.3 1s-.1.8-.3 1.2c-.2.4-.5.6-.8.8-.3.2-.7.4-1.2.5-.4.1-.9.2-1.3.2s-.8-.1-1.2-.2c-.4-.1-.7-.3-1-.5-.3-.2-.6-.5-.8-.9-.2-.4-.3-.8-.3-1.2h1.5c0 .3.1.5.2.7.1.2.3.4.4.5l.6.3c.2.1.5.1.7.1.2 0 .5 0 .7-.1.2 0 .5-.1.6-.2.1-.1.3-.2.5-.4s.2-.3.2-.6c0-.2-.1-.3-.2-.4-.1-.1-.3-.2-.5-.3-.2-.1-.4-.2-.7-.2-.3 0-.5-.1-.8-.2-.4-.1-.7-.2-1.1-.3-.4-.1-.7-.3-1-.4-.3-.2-.6-.4-.7-.7.2-.5.1-.8.1-1.3zm8.2-4.8c0-.3.1-.5.3-.6.2-.2.4-.3.6-.3.2 0 .5.1.6.3.2.2.3.4.3.6 0 .2-.1.5-.3.6-.2.2-.4.3-.6.3-.3 0-.5-.1-.6-.3-.2-.1-.3-.3-.3-.6zm1.6 2.7v8h-1.4v-8H32zm2.3 2.1c0-.4.1-.7.3-1 .2-.3.4-.5.7-.7.3-.2.6-.3 1-.4.4-.1.8-.1 1.1-.1.4 0 .8.1 1.2.2.4.1.7.3 1 .5.3.2.5.5.7.8.2.3.3.7.3 1.1h-1.4c0-.2-.1-.4-.2-.6-.1-.2-.2-.3-.4-.4-.2-.1-.4-.2-.6-.2-.2 0-.4-.1-.7-.1-.5 0-.9.1-1.2.3-.3.2-.5.4-.5.7 0 .1.1.3.2.4.1.1.3.2.4.3.1.1.4.2.7.2.3.1.5.1.8.2.3.1.7.2 1 .3.4.1.7.2 1 .4.3.2.5.4.7.7.2.3.3.6.3 1s-.1.8-.3 1.2c-.2.4-.5.6-.8.8-.3.2-.7.4-1.2.5-.4.1-.9.2-1.3.2s-.8-.1-1.2-.2c-.4-.1-.7-.3-1-.5-.3-.2-.6-.5-.8-.9-.2-.4-.3-.8-.3-1.2h1.5c0 .3.1.5.2.7.1.2.3.4.4.5l.6.3c.2.1.5.1.7.1.2 0 .5 0 .7-.1.2 0 .5-.1.6-.2.1-.1.3-.2.5-.4s.2-.3.2-.6c0-.2-.1-.3-.2-.4-.1-.1-.3-.2-.5-.3-.2-.1-.4-.2-.7-.2-.3 0-.5-.1-.8-.2-.4-.1-.7-.2-1.1-.3-.4-.1-.7-.3-1-.4-.3-.2-.6-.4-.7-.7.2-.5.1-.8.1-1.3zM3.8 384.5H2.4v-11.2h4.8c.5 0 1 .1 1.4.3.4.2.8.4 1.1.7.3.3.5.6.7 1 .2.4.3.8.3 1.2 0 .4-.1.7-.2 1-.1.3-.3.5-.5.8-.2.3-.5.4-.7.5l-.9.3c.3.1.5.2.6.3.2.1.3.3.5.5.1.2.3.4.4.7.1.2.2.5.3.8.1.1.1.4.3.7.2.3.3.6.4.9.2.3.3.6.5.9.2.3.3.5.4.6H10l-1.2-2.8c-.1-.3-.2-.5-.4-.8-.1-.2-.3-.5-.5-.7-.2-.2-.4-.4-.6-.5-.2-.1-.5-.2-.8-.2H3.9v5h-.1zm2.4-6.1h1.2c.2 0 .5-.1.7-.2.2-.1.4-.2.6-.4.2-.2.3-.4.4-.6.1-.2.2-.5.2-.8 0-.3-.1-.5-.2-.7-.1-.2-.3-.4-.5-.6-.2-.2-.4-.3-.7-.4-.3-.1-.5-.1-.8-.2H3.8v3.8h2.4v.1zm7.8 2.5c0 .3.1.7.2 1 .1.3.3.6.5.8.2.2.5.4.8.5.3.1.7.2 1.1.2.6 0 1-.1 1.4-.4.4-.3.7-.7.8-1.2h1.5c-.3.9-.7 1.7-1.4 2.1-.7.5-1.5.7-2.5.7-.6 0-1.2-.1-1.7-.3-.5-.2-.9-.5-1.2-.9-.3-.4-.6-.8-.7-1.4-.2-.5-.2-1-.2-1.6 0-.5.1-1 .3-1.5.2-.5.4-.9.8-1.3.3-.4.7-.7 1.2-.9.5-.2 1-.3 1.7-.3s1.2.1 1.7.3c.5.2.9.5 1.2 1 .3.4.6.9.7 1.4.2.5.2 1.1.2 1.8H14zm4.8-1.2c-.1-.6-.3-1.1-.7-1.5-.4-.4-1-.6-1.8-.6-.3 0-.7.1-.9.2-.3.1-.5.3-.7.4-.2.2-.4.4-.5.6-.1.2-.2.5-.2.8h4.8v.1zm5.1 4.8h-1.4v-12h1.4zm3.5-3.6c0 .3.1.7.2 1 .1.3.3.6.5.8.2.2.5.4.8.5.3.1.7.2 1.1.2.6 0 1-.1 1.4-.4.4-.3.7-.7.8-1.2h1.5c-.3.9-.7 1.7-1.4 2.1-.7.5-1.5.7-2.5.7-.6 0-1.2-.1-1.7-.3-.5-.2-.9-.5-1.2-.9-.3-.4-.6-.8-.7-1.4-.2-.5-.2-1-.2-1.6 0-.5.1-1 .3-1.5.2-.5.4-.9.8-1.3.3-.4.7-.7 1.2-.9.5-.2 1-.3 1.7-.3s1.2.1 1.7.3c.5.2.9.5 1.2 1 .3.4.6.9.7 1.4.2.5.2 1.1.2 1.8h-6.4zm4.8-1.2c-.1-.6-.3-1.1-.7-1.5-.4-.4-1-.6-1.8-.6-.3 0-.7.1-.9.2-.3.1-.5.3-.7.4-.2.2-.4.4-.5.6-.1.2-.2.5-.2.8h4.8v.1zm4-3.2l2.6 6.2c.3-.8.6-1.5 1-2.3.4-.8.6-1.5.9-2.3l.7-1.6h1.5l-3.3 8h-1.3l-3.4-8h1.3zm10.9 3.3c.4-.1.8-.2 1.1-.2.4-.1.7-.2.9-.3 0-.5-.2-.9-.5-1.2-.3-.2-.8-.4-1.4-.4-.5 0-.9.1-1.2.3-.3.2-.5.5-.6 1H44c0-.4.2-.8.3-1.1.2-.3.4-.6.7-.8.3-.2.6-.4.9-.5.3-.1.7-.2 1.1-.2 1.1 0 2 .2 2.6.7.6.5.9 1.2.9 2.3v3.5c0 .3 0 .4.1.5.1.1.3.1.4 0 .1 0 .2-.1.3-.2l.1 1.1c-.2.1-.3.2-.5.3h-.5c-.1 0-.2 0-.3-.1-.1-.1-.2-.1-.3-.3-.1-.1-.2-.3-.3-.5-.1-.2-.1-.4-.1-.7-.3.4-.7.8-1.2 1.1-.5.3-1.1.4-1.7.4-.4 0-.8 0-1.1-.1-.3-.1-.6-.2-.9-.4-.3-.2-.4-.4-.6-.7-.2-.3-.2-.7-.2-1.1 0-.4.1-.8.3-1.1.2-.3.5-.5.8-.7.3-.2.7-.3 1.1-.4.4 0 .8-.1 1.2-.2zm-2 2.5c0 .4.2.7.5.9.3.2.7.3 1.1.3.4 0 .7-.1 1-.3.3-.2.6-.4.8-.7.2-.3.4-.6.5-.9.1-.3.2-.7.2-1-.2.1-.5.2-.7.2-.3.1-.6.1-.8.2-.3.1-.6.1-.9.2-.3.1-.6.2-.8.3-.2.1-.4.2-.6.4-.2.2-.3.2-.3.4zm9.5 2.2h-1.4v-8h1.4v1.1c.3-.4.7-.8 1.1-1 .5-.2.9-.3 1.4-.3.7 0 1.2.1 1.6.3.4.2.7.4.9.8.2.3.3.7.4 1.1.1.4.1.8.1 1.2v4.8h-1.4v-5.4c0-.2-.1-.5-.2-.6-.1-.2-.2-.3-.4-.5l-.6-.3c-.2-.1-.4-.1-.7-.1-.4 0-.7.1-1 .2-.3.1-.5.3-.7.5-.2.2-.3.4-.4.7-.1.3-.2.5-.2.8v4.7h.1zm7.4-1.1l4.7-5.5H62v-1.3h6.6v1.2l-4.7 5.4h4.7v1.3H62zm7.7-4h4.4v1.4h-4.4zm4.7 5.1l4.8-11.2h1.6l4.8 11.2H84l-1.3-3.2h-5.5l-1.3 3.2h-1.5zm7.7-4.4l-2.2-5.2-2.3 5.2h4.5zm6.1 4.4h-1.4v-8h1.4v1.1c.3-.4.7-.8 1.1-1 .5-.2.9-.3 1.4-.3.7 0 1.2.1 1.6.3.4.2.7.4.9.8.2.3.3.7.4 1.1.1.4.1.8.1 1.2v4.8h-1.4v-5.4c0-.2-.1-.5-.2-.6-.1-.2-.2-.3-.4-.5l-.6-.3c-.2-.1-.4-.1-.7-.1-.4 0-.7.1-1 .2-.3.1-.5.3-.7.5-.2.2-.3.4-.4.7-.1.3-.2.5-.2.8v4.7h.1zm10.8-4.7c.4-.1.8-.2 1.1-.2.4-.1.7-.2.9-.3 0-.5-.2-.9-.5-1.2-.3-.2-.8-.4-1.4-.4-.5 0-.9.1-1.2.3-.3.2-.5.5-.6 1h-1.5c0-.4.2-.8.3-1.1.2-.3.4-.6.7-.8.3-.2.6-.4.9-.5.3-.1.7-.2 1.1-.2 1.1 0 2 .2 2.6.7.6.5.9 1.2.9 2.3v3.5c0 .3 0 .4.1.5.1.1.3.1.4 0 .1 0 .2-.1.3-.2l.1 1.1c-.2.1-.3.2-.5.3h-.5c-.1 0-.2 0-.3-.1-.1-.1-.2-.1-.3-.3-.1-.1-.2-.3-.3-.5-.1-.2-.1-.4-.1-.7-.3.4-.7.8-1.2 1.1-.5.3-1.1.4-1.7.4-.4 0-.8 0-1.1-.1-.3-.1-.6-.2-.9-.4-.3-.2-.4-.4-.6-.7-.2-.3-.2-.7-.2-1.1 0-.4.1-.8.3-1.1.2-.3.5-.5.8-.7.3-.2.7-.3 1.1-.4.5 0 .9-.1 1.3-.2zm-1.9 2.5c0 .4.2.7.5.9.3.2.7.3 1.1.3.4 0 .7-.1 1-.3.3-.2.6-.4.8-.7.2-.3.4-.6.5-.9.1-.3.2-.7.2-1-.2.1-.5.2-.7.2-.3.1-.6.1-.8.2-.3.1-.6.1-.9.2-.3.1-.6.2-.8.3-.2.1-.4.2-.6.4-.2.2-.3.2-.3.4zm9.5 2.2h-1.4v-12h1.4zm3.3-8l2.4 6 2.4-6h1.4l-4.7 11.8H110l1.6-4.1-3.2-7.7zm7.5 2.1c0-.4.1-.7.3-1 .2-.3.4-.5.7-.7.3-.2.6-.3 1-.4.4-.1.8-.1 1.1-.1.4 0 .8.1 1.2.2.4.1.7.3 1 .5.3.2.5.5.7.8.2.3.3.7.3 1.1h-1.4c0-.2-.1-.4-.2-.6-.1-.2-.2-.3-.4-.4-.2-.1-.4-.2-.6-.2-.2 0-.4-.1-.7-.1-.5 0-.9.1-1.2.3-.3.2-.5.4-.5.7 0 .1.1.3.2.4.1.1.3.2.4.3.1.1.4.2.7.2.3.1.5.1.8.2.3.1.7.2 1 .3.4.1.7.2 1 .4.3.2.5.4.7.7.2.3.3.6.3 1s-.1.8-.3 1.2c-.2.4-.5.6-.8.8-.3.2-.7.4-1.2.5-.4.1-.9.2-1.3.2s-.8-.1-1.2-.2c-.4-.1-.7-.3-1-.5-.3-.2-.6-.5-.8-.9-.2-.4-.3-.8-.3-1.2h1.5c0 .3.1.5.2.7.1.2.3.4.4.5l.6.3c.2.1.5.1.7.1.2 0 .5 0 .7-.1.2 0 .5-.1.6-.2.1-.1.3-.2.5-.4s.2-.3.2-.6c0-.2-.1-.3-.2-.4-.1-.1-.3-.2-.5-.3-.2-.1-.4-.2-.7-.2-.3 0-.5-.1-.8-.2-.4-.1-.7-.2-1.1-.3-.4-.1-.7-.3-1-.4-.3-.2-.6-.4-.7-.7.2-.5.1-.8.1-1.3zm9.8 2.3c0 .3.1.7.2 1 .1.3.3.6.5.8.2.2.5.4.8.5.3.1.7.2 1.1.2.6 0 1-.1 1.4-.4.4-.3.7-.7.8-1.2h1.5c-.3.9-.7 1.7-1.4 2.1-.7.5-1.5.7-2.5.7-.6 0-1.2-.1-1.7-.3-.5-.2-.9-.5-1.2-.9-.3-.4-.6-.8-.7-1.4-.2-.5-.2-1-.2-1.6 0-.5.1-1 .3-1.5.2-.5.4-.9.8-1.3.3-.4.7-.7 1.2-.9.5-.2 1-.3 1.7-.3s1.2.1 1.7.3c.5.2.9.5 1.2 1 .3.4.6.9.7 1.4.2.5.2 1.1.2 1.8h-6.4zm4.9-1.2c-.1-.6-.3-1.1-.7-1.5-.4-.4-1-.6-1.8-.6-.3 0-.7.1-.9.2-.3.1-.5.3-.7.4-.2.2-.4.4-.5.6-.1.2-.2.5-.2.8h4.8v.1zm14-3.2h1.4v8h-1.4v-1.3c-.3.5-.7.9-1.1 1.1-.4.2-.9.3-1.4.3-.6 0-1.2-.1-1.5-.3-.4-.2-.7-.4-.9-.7-.2-.3-.3-.7-.4-1.1-.1-.4-.1-.8-.1-1.2v-4.8h1.4v5.3c0 .2.1.5.2.6.1.2.2.3.4.5s.4.2.6.3c.2.1.4.1.7.1.4 0 .7-.1 1-.2.3-.1.5-.3.7-.5.2-.2.3-.4.4-.7.1-.3.2-.5.2-.8v-4.6h-.2zm5.2 8h-1.4v-8h1.4v1.1c.3-.4.7-.8 1.1-1 .5-.2.9-.3 1.4-.3.7 0 1.2.1 1.6.3.4.2.7.4.9.8.2.3.3.7.4 1.1.1.4.1.8.1 1.2v4.8h-1.4v-5.4c0-.2-.1-.5-.2-.6-.1-.2-.2-.3-.4-.5l-.6-.3c-.2-.1-.4-.1-.7-.1-.4 0-.7.1-1 .2-.3.1-.5.3-.7.5-.2.2-.3.4-.4.7-.1.3-.2.5-.2.8v4.7h.1zm14-1.2c-.2.4-.6.8-1.1 1.1-.5.3-1 .4-1.5.4-.6 0-1.2-.1-1.6-.3-.4-.2-.8-.5-1.1-.9-.3-.4-.5-.8-.6-1.3-.1-.5-.2-1-.2-1.6 0-.6.1-1.1.2-1.6s.4-1 .6-1.3c.3-.4.7-.7 1.1-.9.4-.2 1-.3 1.6-.3.2 0 .5 0 .7.1.3.1.5.2.7.3.2.1.4.3.6.4.2.2.4.4.5.6v-5.2h1.4v12h-1.4v-1.5h.1zm-2.4-5.6c-.4 0-.8.1-1.1.2-.3.2-.5.4-.7.6-.2.3-.3.6-.4.9-.1.3-.1.7-.1 1.1 0 .4 0 .7.1 1.1.1.4.2.7.4.9.2.3.4.5.7.7.3.2.6.2 1 .2s.7-.1 1.1-.3c.3-.2.6-.4.8-.7.2-.3.4-.6.5-1 .1-.4.2-.7.2-1.1 0-.4-.1-.7-.2-1.1-.1-.3-.2-.6-.4-.9-.2-.3-.4-.5-.7-.6h-1.2zm-162 26l4.8-11.2h1.6l4.8 11.2h-1.6l-1.3-3.2H3.7l-1.3 3.2H.9zm7.8-4.4l-2.2-5.2-2.3 5.2h4.5zm10.2-3.6h1.4v8h-1.4v-1.3c-.3.5-.7.9-1.1 1.1-.4.2-.9.3-1.4.3-.6 0-1.2-.1-1.5-.3-.4-.2-.7-.4-.9-.7-.2-.3-.3-.7-.4-1.1-.1-.4-.1-.8-.1-1.2v-4.8h1.4v5.3c0 .2.1.5.2.6.1.2.2.3.4.5s.4.2.6.3c.2.1.4.1.7.1.4 0 .7-.1 1-.2.3-.1.5-.3.7-.5.2-.2.3-.4.4-.7.1-.3.2-.5.2-.8v-4.6h-.2zm4.6 8V397h-1.6v-1.3h1.6v-2.4c0-.6.2-1 .5-1.3.3-.3.9-.5 1.6-.5.2 0 .4 0 .6.1.2.1.4.1.6.2v1.2c-.2-.1-.3-.1-.5-.2-.1 0-.2-.1-.3-.1-.2 0-.4 0-.6.1-.1 0-.2.1-.3.2-.1.1-.1.2-.2.3v2.4h1.7v1.3h-1.7v6.7h-1.4zm5.1-1.1l4.7-5.5h-4.7v-1.3h6.6v1.2l-4.7 5.4h4.7v1.3h-6.6zm9.6-2.5c0 .3.1.7.2 1 .1.3.3.6.5.8.2.2.5.4.8.5.3.1.7.2 1.1.2.6 0 1-.1 1.4-.4.4-.3.7-.7.8-1.2h1.5c-.3.9-.7 1.7-1.4 2.1-.7.5-1.5.7-2.5.7-.6 0-1.2-.1-1.7-.3-.5-.2-.9-.5-1.2-.9-.3-.4-.6-.8-.7-1.4-.2-.5-.2-1-.2-1.6 0-.5.1-1 .3-1.5.2-.5.4-.9.8-1.3.3-.4.7-.7 1.2-.9.5-.2 1-.3 1.7-.3s1.2.1 1.7.3c.5.2.9.5 1.2 1 .3.4.6.9.7 1.4.2.5.2 1.1.2 1.8h-6.4zm4.8-1.2c-.1-.6-.3-1.1-.7-1.5-.4-.4-1-.6-1.8-.6-.3 0-.7.1-.9.2-.3.1-.5.3-.7.4-.2.2-.4.4-.5.6-.1.2-.2.5-.2.8H43v.1zm3.5-5.9c0-.3.1-.5.3-.6.2-.2.4-.3.6-.3.2 0 .5.1.6.3.2.2.3.4.3.6 0 .2-.1.5-.3.6-.2.2-.4.3-.6.3-.3 0-.5-.1-.6-.3-.2-.1-.3-.3-.3-.6zm1.6 2.7v8h-1.4v-8h1.4zm8.1 0h1.4v8.7c0 .5-.1.9-.2 1.3s-.4.8-.7 1.1c-.3.3-.7.6-1.2.7-.5.2-1 .3-1.7.3-.4 0-.8 0-1.2-.1-.4-.1-.8-.2-1.1-.5-.3-.2-.6-.5-.8-.8-.2-.3-.4-.7-.4-1.2h1.4l.3.6c.1.2.3.3.5.4.2.1.4.2.6.2.2 0 .5.1.7.1.3 0 .6 0 .9-.1.3-.1.5-.2.7-.4.2-.2.4-.4.5-.6.1-.2.2-.5.2-.8v-1.8c-.3.4-.7.6-1.1.8-.4.2-.9.2-1.3.2-.6 0-1.2-.1-1.6-.3-.5-.2-.9-.5-1.2-.9-.3-.4-.5-.8-.7-1.3-.2-.5-.2-1-.2-1.6 0-.6.1-1.1.2-1.6s.4-.9.7-1.3c.3-.4.7-.7 1.2-.9.5-.2 1-.3 1.6-.3.5 0 1 .1 1.4.3.4.2.8.5 1.1 1v-1.2zm0 3.9c0-.4-.1-.7-.2-1-.1-.3-.3-.6-.5-.9-.2-.3-.4-.5-.7-.6-.3-.1-.6-.2-1-.2s-.7.1-1 .2c-.3.2-.5.4-.7.6-.2.2-.4.6-.5.9-.1.3-.2.7-.2 1.1 0 .4.1.7.2 1.1.1.4.3.7.5.9.2.3.5.5.8.6.3.2.7.2 1 .2.4 0 .8-.1 1.1-.2.3-.2.5-.4.7-.6.2-.2.3-.6.4-.9.1-.3.1-.7.1-1.2zm4.9.5c0 .3.1.7.2 1 .1.3.3.6.5.8.2.2.5.4.8.5.3.1.7.2 1.1.2.6 0 1-.1 1.4-.4.4-.3.7-.7.8-1.2h1.5c-.3.9-.7 1.7-1.4 2.1-.7.5-1.5.7-2.5.7-.6 0-1.2-.1-1.7-.3-.5-.2-.9-.5-1.2-.9-.3-.4-.6-.8-.7-1.4-.2-.5-.2-1-.2-1.6 0-.5.1-1 .3-1.5.2-.5.4-.9.8-1.3.3-.4.7-.7 1.2-.9.5-.2 1-.3 1.7-.3s1.2.1 1.7.3c.5.2.9.5 1.2 1 .3.4.6.9.7 1.4.2.5.2 1.1.2 1.8h-6.4zm4.8-1.2c-.1-.6-.3-1.1-.7-1.5-.4-.4-1-.6-1.8-.6-.3 0-.7.1-.9.2-.3.1-.5.3-.7.4-.2.2-.4.4-.5.6-.1.2-.2.5-.2.8h4.8v.1zm5 4.8h-1.4v-8h1.4v1.1c.3-.4.7-.8 1.1-1 .5-.2.9-.3 1.4-.3.7 0 1.2.1 1.6.3.4.2.7.4.9.8.2.3.3.7.4 1.1.1.4.1.8.1 1.2v4.8H75v-5.4c0-.2-.1-.5-.2-.6-.1-.2-.2-.3-.4-.5l-.6-.3c-.2-.1-.4-.1-.7-.1-.4 0-.7.1-1 .2-.3.1-.5.3-.7.5-.2.2-.3.4-.4.7-.1.3-.2.5-.2.8v4.7h.1zm13.2-8l2.6 6.2c.3-.8.6-1.5 1-2.3.4-.8.6-1.5.9-2.3l.7-1.6h1.5l-3.3 8h-1.3l-3.4-8h1.3zm11.6-.1c.7 0 1.3.1 1.8.3.5.2.9.5 1.3.9.3.4.6.8.7 1.3.2.5.2 1 .2 1.6 0 .5-.1 1.1-.2 1.6-.2.5-.4.9-.7 1.3-.3.4-.8.7-1.3.9-.5.2-1.1.3-1.8.3s-1.2-.1-1.7-.3c-.5-.2-.9-.5-1.3-.9-.3-.4-.6-.8-.7-1.3-.2-.5-.2-1-.2-1.6 0-.6.1-1.1.2-1.6.2-.5.4-1 .7-1.3.3-.4.7-.7 1.3-.9.5-.2 1-.3 1.7-.3zm2.6 4.2c0-.4-.1-.7-.2-1.1-.1-.4-.3-.7-.5-.9-.2-.3-.5-.5-.8-.7-.3-.2-.7-.2-1.2-.2-.4 0-.8.1-1.1.2-.3.2-.6.4-.8.7-.2.3-.4.6-.5.9-.1.4-.2.7-.2 1.1 0 .4.1.7.2 1.1.1.3.3.7.5.9.2.3.5.5.8.6.3.2.7.2 1.1.2.4 0 .8-.1 1.2-.2.3-.2.6-.4.8-.6.2-.3.4-.6.5-.9.1-.4.2-.7.2-1.1zm4.8 3.9h-1.4v-8h1.4v1.1c.3-.4.7-.8 1.1-1 .5-.2.9-.3 1.4-.3.7 0 1.2.1 1.6.3.4.2.7.4.9.8.2.3.3.7.4 1.1.1.4.1.8.1 1.2v4.8h-1.4v-5.4c0-.2-.1-.5-.2-.6-.1-.2-.2-.3-.4-.5l-.6-.3c-.2-.1-.4-.1-.7-.1-.4 0-.7.1-1 .2-.3.1-.5.3-.7.5-.2.2-.3.4-.4.7-.1.3-.2.5-.2.8v4.7h.1zm21-7.9c-.2-.8-.5-1.3-1.1-1.7-.5-.4-1.2-.5-1.9-.5s-1.3.1-1.8.4c-.5.3-.9.6-1.2 1-.3.4-.5.9-.7 1.4-.2.5-.2 1.1-.2 1.7 0 .7.1 1.4.2 1.9s.4 1.1.7 1.5c.3.4.7.7 1.2.9.5.2 1.1.3 1.7.3.4 0 .7-.1 1-.2.3-.1.6-.3.9-.6.3-.3.5-.5.7-.8.2-.3.3-.7.4-1h1.5c-.1.6-.3 1.1-.6 1.6s-.6.9-1 1.2c-.4.3-.9.6-1.4.8-.5.2-1 .3-1.6.3-.9 0-1.7-.1-2.4-.4-.7-.3-1.2-.7-1.7-1.2-.4-.5-.8-1.2-1-1.9-.2-.7-.3-1.6-.3-2.4 0-.7.1-1.5.3-2.2.2-.7.5-1.3 1-1.8.4-.5 1-1 1.7-1.3.7-.3 1.5-.5 2.4-.5.6 0 1.1.1 1.6.2.5.2 1 .4 1.4.7.4.3.7.7 1 1.1.3.4.4.9.5 1.5h-1.3zm5 1c.1-.2.3-.4.4-.5.2-.2.4-.3.6-.4.2-.1.5-.2.7-.2.2 0 .5-.1.7-.1.7 0 1.2.1 1.6.3.4.2.7.5.9.8.2.3.4.7.4 1.1.1.4.1.8.1 1.2v4.8h-1.4v-5.3c0-.5-.2-.9-.5-1.2-.3-.2-.8-.4-1.4-.4-.4 0-.7.1-1 .2-.3.1-.5.3-.7.5-.2.2-.3.4-.4.7-.1.3-.2.5-.2.8v4.7h-1.4v-12h1.4v5h.2zM140 399c.4-.1.8-.2 1.1-.2.4-.1.7-.2.9-.3 0-.5-.2-.9-.5-1.2-.3-.2-.8-.4-1.4-.4-.5 0-.9.1-1.2.3-.3.2-.5.5-.6 1h-1.5c0-.4.2-.8.3-1.1.2-.3.4-.6.7-.8.3-.2.6-.4.9-.5.3-.1.7-.2 1.1-.2 1.1 0 2 .2 2.6.7.6.5.9 1.2.9 2.3v3.5c0 .3 0 .4.1.5.1.1.3.1.4 0 .1 0 .2-.1.3-.2l.1 1.1c-.2.1-.3.2-.5.3h-.5c-.1 0-.2 0-.3-.1-.1-.1-.2-.1-.3-.3-.1-.1-.2-.3-.3-.5-.1-.2-.1-.4-.1-.7-.3.4-.7.8-1.2 1.1-.5.3-1.1.4-1.7.4-.4 0-.8 0-1.1-.1-.3-.1-.6-.2-.9-.4-.3-.2-.4-.4-.6-.7-.2-.3-.2-.7-.2-1.1 0-.4.1-.8.3-1.1.2-.3.5-.5.8-.7.3-.2.7-.3 1.1-.4.5 0 .9-.1 1.3-.2zm-2 2.5c0 .4.2.7.5.9.3.2.7.3 1.1.3.4 0 .7-.1 1-.3.3-.2.6-.4.8-.7.2-.3.4-.6.5-.9.1-.3.2-.7.2-1-.2.1-.5.2-.7.2-.3.1-.6.1-.8.2-.3.1-.6.1-.9.2-.3.1-.6.2-.8.3-.2.1-.4.2-.6.4-.2.2-.3.2-.3.4zm9.4 2.2H146v-8h1.4v1.1c.3-.4.7-.8 1.1-1 .5-.2.9-.3 1.4-.3.7 0 1.2.1 1.6.3.4.2.7.4.9.8.2.3.3.7.4 1.1.1.4.1.8.1 1.2v4.8h-1.4v-5.4c0-.2-.1-.5-.2-.6-.1-.2-.2-.3-.4-.5l-.6-.3c-.2-.1-.4-.1-.7-.1-.4 0-.7.1-1 .2-.3.1-.5.3-.7.5-.2.2-.3.4-.4.7-.1.3-.2.5-.2.8v4.7h.1zm13.4-5.3c-.1-.6-.3-1-.6-1.2-.3-.2-.8-.4-1.4-.4-.4 0-.7.1-1 .2-.3.1-.5.4-.7.6-.2.3-.3.6-.5.9-.1.3-.2.7-.2 1.1 0 .4.1.8.2 1.1.1.4.3.7.4 1 .2.3.4.5.7.7.3.2.6.3 1 .3.6 0 1.1-.2 1.4-.5.4-.4.6-.8.6-1.3h1.5c-.2 1-.5 1.8-1.1 2.3-.6.5-1.4.8-2.4.8-.6 0-1.2-.1-1.7-.4-.5-.3-.9-.6-1.2-1-.3-.4-.5-.9-.7-1.4-.1-.5-.2-1-.2-1.6 0-.6.1-1.1.2-1.6.2-.5.4-.9.7-1.3.3-.4.7-.7 1.2-.9.5-.2 1-.3 1.7-.3.5 0 .9.1 1.3.2s.7.3 1 .6c.3.3.5.6.7.9.2.4.3.7.3 1.2h-1.2zm4.5 1.7c0 .3.1.7.2 1 .1.3.3.6.5.8.2.2.5.4.8.5.3.1.7.2 1.1.2.6 0 1-.1 1.4-.4.4-.3.7-.7.8-1.2h1.5c-.3.9-.7 1.7-1.4 2.1-.7.5-1.5.7-2.5.7-.6 0-1.2-.1-1.7-.3-.5-.2-.9-.5-1.2-.9-.3-.4-.6-.8-.7-1.4-.2-.5-.2-1-.2-1.6 0-.5.1-1 .3-1.5.2-.5.4-.9.8-1.3.3-.4.7-.7 1.2-.9.5-.2 1-.3 1.7-.3s1.2.1 1.7.3c.5.2.9.5 1.2 1 .3.4.6.9.7 1.4.2.5.2 1.1.2 1.8h-6.4zm4.8-1.2c-.1-.6-.3-1.1-.7-1.5-.4-.4-1-.6-1.8-.6-.3 0-.7.1-.9.2-.3.1-.5.3-.7.4-.2.2-.4.4-.5.6-.1.2-.2.5-.2.8h4.8v.1zm5 4.8h-1.4v-8h1.4v1.1c.3-.4.7-.8 1.1-1 .5-.2.9-.3 1.4-.3.7 0 1.2.1 1.6.3.4.2.7.4.9.8.2.3.3.7.4 1.1.1.4.1.8.1 1.2v4.8h-1.4v-5.4c0-.2-.1-.5-.2-.6-.1-.2-.2-.3-.4-.5l-.6-.3c-.2-.1-.4-.1-.7-.1-.4 0-.7.1-1 .2-.3.1-.5.3-.7.5-.2.2-.3.4-.4.7-.1.3-.2.5-.2.8v4.7h.1zm7.2-5.1h4.4v1.4h-4.4zM7.7 414.9h1.4v8H7.7v-1.3c-.3.5-.7.9-1.1 1.1-.4.2-.9.3-1.4.3-.6 0-1.2-.1-1.5-.3-.4-.2-.7-.4-.9-.7-.2-.3-.3-.7-.4-1.1-.1-.4-.1-.8-.1-1.2v-4.8h1.4v5.3c0 .2.1.5.2.6.1.2.2.3.4.5s.4.2.6.3c.2.1.4.1.7.1.4 0 .7-.1 1-.2.3-.1.5-.3.7-.5.2-.2.3-.4.4-.7.1-.3.2-.5.2-.8v-4.6h-.2zm5.2 8h-1.4v-8h1.4v1.1c.3-.4.7-.8 1.1-1 .5-.2.9-.3 1.4-.3.7 0 1.2.1 1.6.3.4.2.7.4.9.8.2.3.3.7.4 1.1.1.4.1.8.1 1.2v4.8H17v-5.4c0-.2-.1-.5-.2-.6-.1-.2-.2-.3-.4-.5l-.6-.3c-.2-.1-.4-.1-.7-.1-.4 0-.7.1-1 .2-.3.1-.5.3-.7.5-.2.2-.3.4-.4.7-.1.3-.2.5-.2.8v4.7h.1zm13.9-1.2c-.2.4-.6.8-1.1 1.1-.5.3-1 .4-1.5.4-.6 0-1.2-.1-1.6-.3-.4-.2-.8-.5-1.1-.9-.3-.4-.5-.8-.6-1.3-.1-.5-.2-1-.2-1.6 0-.6.1-1.1.2-1.6s.4-1 .6-1.3c.3-.4.7-.7 1.1-.9.4-.2 1-.3 1.6-.3.2 0 .5 0 .7.1.3.1.5.2.7.3.2.1.4.3.6.4.2.2.4.4.5.6V411h1.4v12h-1.4v-1.3h.1zm-2.4-5.6c-.4 0-.8.1-1.1.2-.3.2-.5.4-.7.6-.2.3-.3.6-.4.9-.1.3-.1.7-.1 1.1 0 .4 0 .7.1 1.1.1.4.2.7.4.9.2.3.4.5.7.7.3.2.6.2 1 .2s.7-.1 1.1-.3c.3-.2.6-.4.8-.7.2-.3.4-.6.5-1 .1-.4.2-.7.2-1.1 0-.4-.1-.7-.2-1.1-.1-.3-.2-.6-.4-.9-.2-.3-.4-.5-.7-.6h-1.2zm12.4 6.8h-1.4v-11.2h4.8c.5 0 1 .1 1.4.3.4.2.8.4 1.1.7.3.3.5.6.7 1 .2.4.3.8.3 1.2 0 .4-.1.7-.2 1-.1.3-.3.5-.5.8-.2.3-.5.4-.7.5l-.9.3c.3.1.5.2.6.3.2.1.3.3.5.5.1.2.3.4.4.7.1.2.2.5.3.8.1.1.1.4.3.7.2.3.3.6.4.9.2.3.3.6.5.9.2.3.3.5.4.6H43l-1.2-2.8c-.1-.3-.2-.5-.4-.8-.1-.2-.3-.5-.5-.7-.2-.2-.4-.4-.6-.5-.2-.1-.5-.2-.8-.2h-2.6v5h-.1zm2.3-6.1h1.2c.2 0 .5-.1.7-.2.2-.1.4-.2.6-.4.2-.2.3-.4.4-.6.1-.2.2-.5.2-.8 0-.3-.1-.5-.2-.7-.1-.2-.3-.4-.5-.6-.2-.2-.4-.3-.7-.4-.3-.1-.5-.1-.8-.2h-3.3v3.8h2.4v.1zm7.1-4.6c0-.3.1-.5.3-.6.2-.2.4-.3.6-.3.2 0 .5.1.6.3.2.2.3.4.3.6 0 .2-.1.5-.3.6-.2.2-.4.3-.6.3-.3 0-.5-.1-.6-.3-.3-.1-.3-.3-.3-.6zm1.6 2.7v8h-1.4v-8h1.4zM50 417c0-.4.1-.7.3-1 .2-.3.4-.5.7-.7.3-.2.6-.3 1-.4.4-.1.8-.1 1.1-.1.4 0 .8.1 1.2.2.4.1.7.3 1 .5.3.2.5.5.7.8.2.3.3.7.3 1.1h-1.4c0-.2-.1-.4-.2-.6-.1-.2-.2-.3-.4-.4-.2-.1-.4-.2-.6-.2-.2 0-.4-.1-.7-.1-.5 0-.9.1-1.2.3-.3.2-.5.4-.5.7 0 .1.1.3.2.4.1.1.3.2.4.3.1.1.4.2.7.2.3.1.5.1.8.2.3.1.7.2 1 .3.4.1.7.2 1 .4.3.2.5.4.7.7.2.3.3.6.3 1s-.1.8-.3 1.2c-.2.4-.5.6-.8.8-.3.2-.7.4-1.2.5-.4.1-.9.2-1.3.2s-.8-.1-1.2-.2c-.4-.1-.7-.3-1-.5-.3-.2-.6-.5-.8-.9-.2-.4-.3-.8-.3-1.2H51c0 .3.1.5.2.7.1.2.3.4.4.5l.6.3c.2.1.5.1.7.1.2 0 .5 0 .7-.1.2 0 .5-.1.6-.2.1-.1.3-.2.5-.4s.2-.3.2-.6c0-.2-.1-.3-.2-.4-.1-.1-.3-.2-.5-.3-.2-.1-.4-.2-.7-.2-.3 0-.5-.1-.8-.2-.4-.1-.7-.2-1.1-.3-.4-.1-.7-.3-1-.4-.3-.2-.6-.4-.7-.7.2-.5.1-.8.1-1.3zm8.2-4.8c0-.3.1-.5.3-.6.2-.2.4-.3.6-.3.2 0 .5.1.6.3.2.2.3.4.3.6 0 .2-.1.5-.3.6-.2.2-.4.3-.6.3-.3 0-.5-.1-.6-.3-.2-.1-.3-.3-.3-.6zm1.6 2.7v8h-1.4v-8h1.4zm4.1 3.3c.6-.5 1.2-1.1 1.9-1.6s1.3-1.1 1.9-1.6h1.9l-3.8 3.4c.6.7 1.3 1.5 2 2.3.7.8 1.3 1.6 2 2.3H68l-3.3-3.7-.7.6v3.1h-1.4v-11.8H64v7h-.1zm7.9 1.1c0 .3.1.7.2 1 .1.3.3.6.5.8.2.2.5.4.8.5.3.1.7.2 1.1.2.6 0 1-.1 1.4-.4.4-.3.7-.7.8-1.2h1.5c-.3.9-.7 1.7-1.4 2.1-.7.5-1.5.7-2.5.7-.6 0-1.2-.1-1.7-.3-.5-.2-.9-.5-1.2-.9-.3-.4-.6-.8-.7-1.4-.2-.5-.2-1-.2-1.6 0-.5.1-1 .3-1.5.2-.5.4-.9.8-1.3.3-.4.7-.7 1.2-.9.5-.2 1-.3 1.7-.3s1.2.1 1.7.3c.5.2.9.5 1.2 1 .3.4.6.9.7 1.4.2.5.2 1.1.2 1.8h-6.4zm4.8-1.2c-.1-.6-.3-1.1-.7-1.5-.4-.4-1-.6-1.8-.6-.3 0-.7.1-.9.2-.3.1-.5.3-.7.4-.2.2-.4.4-.5.6-.1.2-.2.5-.2.8h4.8v.1zm5 4.8h-1.4v-8h1.4v1.1c.3-.4.7-.8 1.1-1 .5-.2.9-.3 1.4-.3.7 0 1.2.1 1.6.3.4.2.7.4.9.8.2.3.3.7.4 1.1.1.4.1.8.1 1.2v4.8h-1.4v-5.4c0-.2-.1-.5-.2-.6-.1-.2-.2-.3-.4-.5l-.6-.3c-.2-.1-.4-.1-.7-.1-.4 0-.7.1-1 .2-.3.1-.5.3-.7.5-.2.2-.3.4-.4.7-.1.3-.2.5-.2.8v4.7h.1zM314.1 461.7c.4 0 .8-.1 1.1-.3l.9-.6c.3-.2.5-.5.7-.8.2-.3.4-.5.5-.7h1.3v11.2h-1.4v-9.1c-.4.6-.9 1-1.4 1.3-.5.2-1.1.4-1.7.5v-1.5zm6.7 4.9v-1.4h9.1v1.4zm10.2 3.8v-1.2l.6-.9c.2-.3.5-.6.8-.9.3-.3.6-.6.9-.8.3-.3.6-.6.9-.8.4-.3.7-.6 1-.9l.9-.9c.3-.3.5-.6.6-.8.2-.3.2-.5.2-.8 0-.6-.2-1.1-.5-1.4-.3-.3-.9-.4-1.6-.4-.4 0-.7.1-1 .2-.3.1-.5.3-.7.5-.2.2-.3.4-.4.7-.1.3-.1.5-.1.8h-1.5c0-.5.1-1 .3-1.4.2-.4.5-.8.8-1.1.3-.3.7-.5 1.2-.7.5-.2 1-.2 1.5-.2s1 .1 1.5.2c.4.2.8.4 1.1.6.3.3.6.6.8 1 .2.4.3.8.3 1.2 0 .5-.1.9-.3 1.4-.2.5-.5.9-.8 1.3-.3.4-.7.8-1.1 1.2-.4.4-.9.7-1.3 1.1-.4.4-.9.7-1.2 1-.4.3-.7.7-1 1h5.9v1.4H331v-.4zm15.2 0v-11.2h1.9l4.2 9.2c.7-1.5 1.4-3 2.1-4.6.7-1.5 1.4-3.1 2.1-4.6h1.9v11.2H357v-8.8c-.7 1.5-1.3 2.9-2 4.4-.7 1.5-1.3 2.9-2 4.4h-1.3l-4.1-8.8v8.8h-1.4zm18.5-8.2c.7 0 1.3.1 1.8.3.5.2.9.5 1.3.9.3.4.6.8.7 1.3.2.5.2 1 .2 1.6 0 .5-.1 1.1-.2 1.6-.2.5-.4.9-.7 1.3-.3.4-.8.7-1.3.9-.5.2-1.1.3-1.8.3s-1.2-.1-1.7-.3c-.5-.2-.9-.5-1.3-.9-.3-.4-.6-.8-.7-1.3-.2-.5-.2-1-.2-1.6 0-.6.1-1.1.2-1.6.2-.5.4-1 .7-1.3.3-.4.7-.7 1.3-.9.4-.2 1-.3 1.7-.3zm2.6 4.2c0-.4-.1-.7-.2-1.1-.1-.4-.3-.7-.5-.9-.2-.3-.5-.5-.8-.7-.3-.2-.7-.2-1.2-.2-.4 0-.8.1-1.1.2-.3.2-.6.4-.8.7-.2.3-.4.6-.5.9-.1.4-.2.7-.2 1.1 0 .4.1.7.2 1.1.1.3.3.7.5.9.2.3.5.5.8.6.3.2.7.2 1.1.2.4 0 .8-.1 1.2-.2.3-.2.6-.4.8-.6.2-.3.4-.6.5-.9.1-.4.2-.7.2-1.1zm4.8 4h-1.4v-8h1.4v1.1c.3-.4.7-.8 1.1-1 .5-.2.9-.3 1.4-.3.7 0 1.2.1 1.6.3.4.2.7.4.9.8.2.3.3.7.4 1.1.1.4.1.8.1 1.2v4.8h-1.4V465c0-.2-.1-.5-.2-.6-.1-.2-.2-.3-.4-.5l-.6-.3c-.2-.1-.4-.1-.7-.1-.4 0-.7.1-1 .2-.3.1-.5.3-.7.5-.2.2-.3.4-.4.7-.1.3-.2.5-.2.8v4.7h.1zm10.9-4.8c.4-.1.8-.2 1.1-.2.4-.1.7-.2.9-.3 0-.5-.2-.9-.5-1.2-.3-.2-.8-.4-1.4-.4-.5 0-.9.1-1.2.3-.3.2-.5.5-.6 1h-1.5c0-.4.2-.8.3-1.1.2-.3.4-.6.7-.8.3-.2.6-.4.9-.5.3-.1.7-.2 1.1-.2 1.1 0 2 .2 2.6.7.6.5.9 1.2.9 2.3v3.5c0 .3 0 .4.1.5.1.1.3.1.4 0 .1 0 .2-.1.3-.2l.1 1.1c-.2.1-.3.2-.5.3h-.5c-.1 0-.2 0-.3-.1-.1-.1-.2-.1-.3-.3-.1-.1-.2-.3-.3-.5-.1-.2-.1-.4-.1-.7-.3.4-.7.8-1.2 1.1-.5.3-1.1.4-1.7.4-.4 0-.8 0-1.1-.1-.3-.1-.6-.2-.9-.4-.3-.2-.4-.4-.6-.7-.2-.3-.2-.7-.2-1.1 0-.4.1-.8.3-1.1.2-.3.5-.5.8-.7.3-.2.7-.3 1.1-.4.5 0 .9-.1 1.3-.2zm-2 2.5c0 .4.2.7.5.9.3.2.7.3 1.1.3.4 0 .7-.1 1-.3.3-.2.6-.4.8-.7.2-.3.4-.6.5-.9.1-.3.2-.7.2-1-.2.1-.5.2-.7.2-.3.1-.6.1-.8.2-.3.1-.6.1-.9.2-.3.1-.6.2-.8.3-.2.1-.4.2-.6.4-.2.2-.3.2-.3.4zm8.7-4.5h-1.5v-1.2h1.5v-2.2h1.4v2.2h1.7v1.2h-1.7v4.9c0 .3.1.5.2.6.1.1.4.2.7.2h.4c.2 0 .3-.1.5-.1v1.2c-.2.1-.4.1-.6.1-.2 0-.4.1-.6.1-.5 0-.8 0-1.1-.1-.3-.1-.5-.2-.6-.4l-.3-.6c0-.2-.1-.5-.1-.8v-5.1h.1zm6.1 3.1c0 .3.1.7.2 1 .1.3.3.6.5.8.2.2.5.4.8.5.3.1.7.2 1.1.2.6 0 1-.1 1.4-.4.4-.3.7-.7.8-1.2h1.5c-.3.9-.7 1.7-1.4 2.1-.7.5-1.5.7-2.5.7-.6 0-1.2-.1-1.7-.3-.5-.2-.9-.5-1.2-.9-.3-.4-.6-.8-.7-1.4-.2-.5-.2-1-.2-1.6 0-.5.1-1 .3-1.5.2-.5.4-.9.8-1.3.3-.4.7-.7 1.2-.9.5-.2 1-.3 1.7-.3s1.2.1 1.7.3c.5.2.9.5 1.2 1 .3.4.6.9.7 1.4.2.5.2 1.1.2 1.8h-6.4zm4.8-1.1c-.1-.6-.3-1.1-.7-1.5-.4-.4-1-.6-1.8-.6-.3 0-.7.1-.9.2-.3.1-.5.3-.7.4-.2.2-.4.4-.5.6-.1.2-.2.5-.2.8h4.8v.1zM6.1 459.1h1.2c.7.1 1.4.2 2 .5.6.3 1.1.7 1.5 1.2.4.5.7 1.1.9 1.7.2.6.3 1.4.3 2.1 0 .8-.1 1.6-.4 2.3-.3.7-.7 1.3-1.2 1.8s-1.1.9-1.9 1.1c-.7.3-1.6.4-2.5.4H2.2V459h3.9v.1zm0 10c1.5 0 2.6-.4 3.4-1.1.7-.8 1.1-1.8 1.1-3.2 0-.8-.1-1.4-.4-1.9-.2-.5-.6-1-1-1.3-.4-.4-1-.6-1.6-.8-.6-.2-1.3-.2-2.1-.2H3.7v8.6h2.4v-.1zm11.1-3.5c.4-.1.8-.2 1.1-.2.4-.1.7-.2.9-.3 0-.5-.2-.9-.5-1.2-.3-.2-.8-.4-1.4-.4-.5 0-.9.1-1.2.3-.3.2-.5.5-.6 1H14c0-.4.2-.8.3-1.1.2-.3.4-.6.7-.8.3-.2.6-.4.9-.5.3-.1.7-.2 1.1-.2 1.1 0 2 .2 2.6.7.6.5.9 1.2.9 2.3v3.5c0 .3 0 .4.1.5.1.1.3.1.4 0 .1 0 .2-.1.3-.2l.1 1.1c-.2.1-.3.2-.5.3h-.5c-.1 0-.2 0-.3-.1-.1-.1-.2-.1-.3-.3-.1-.1-.2-.3-.3-.5-.1-.2-.1-.4-.1-.7-.3.4-.7.8-1.2 1.1-.5.3-1.1.4-1.7.4-.4 0-.8 0-1.1-.1-.3-.1-.6-.2-.9-.4-.3-.2-.4-.4-.6-.7-.2-.3-.2-.7-.2-1.1 0-.4.1-.8.3-1.1.2-.3.5-.5.8-.7.3-.2.7-.3 1.1-.4.5 0 .9-.1 1.3-.2zm-2 2.5c0 .4.2.7.5.9.3.2.7.3 1.1.3.4 0 .7-.1 1-.3.3-.2.6-.4.8-.7.2-.3.4-.6.5-.9.1-.3.2-.7.2-1-.2.1-.5.2-.7.2-.3.1-.6.1-.8.2-.3.1-.6.1-.9.2-.3.1-.6.2-.8.3-.2.1-.4.2-.6.4-.2.2-.3.2-.3.4zm13.2-5.7h1.4v8h-1.4V469c-.3.5-.7.9-1.1 1.1-.4.2-.9.3-1.4.3-.6 0-1.2-.1-1.5-.3-.4-.2-.7-.4-.9-.7-.2-.3-.3-.7-.4-1.1-.1-.4-.1-.8-.1-1.2v-4.8h1.4v5.3c0 .2.1.5.2.6.1.2.2.3.4.5s.4.2.6.3c.2.1.4.1.7.1.4 0 .7-.1 1-.2.3-.1.5-.3.7-.5.2-.2.3-.4.4-.7.1-.3.2-.5.2-.8v-4.5h-.2zm5 4.3c0 .3.1.7.2 1 .1.3.3.6.5.8.2.2.5.4.8.5.3.1.7.2 1.1.2.6 0 1-.1 1.4-.4.4-.3.7-.7.8-1.2h1.5c-.3.9-.7 1.7-1.4 2.1-.7.5-1.5.7-2.5.7-.6 0-1.2-.1-1.7-.3-.5-.2-.9-.5-1.2-.9-.3-.4-.6-.8-.7-1.4-.2-.5-.2-1-.2-1.6 0-.5.1-1 .3-1.5.2-.5.4-.9.8-1.3.3-.4.7-.7 1.2-.9.5-.2 1-.3 1.7-.3s1.2.1 1.7.3c.5.2.9.5 1.2 1 .3.4.6.9.7 1.4.2.5.2 1.1.2 1.8h-6.4zm4.8-1.1c-.1-.6-.3-1.1-.7-1.5-.4-.4-1-.6-1.8-.6-.3 0-.7.1-.9.2-.3.1-.5.3-.7.4-.2.2-.4.4-.5.6-.1.2-.2.5-.2.8h4.8v.1zm4.9 4.8h-1.4v-8H43v.9c.2-.3.4-.6.8-.8.3-.2.7-.3 1.1-.3h.5c.2 0 .3 0 .5.1v1.4c-.2-.1-.3-.1-.5-.1h-.3c-.3 0-.6.1-.9.2-.3.1-.5.3-.6.4-.2.2-.3.4-.4.6-.1.2-.1.5-.1.8v4.8zM105.2 461.7c.4 0 .8-.1 1.1-.3l.9-.6c.3-.2.5-.5.7-.8.2-.3.4-.5.5-.7h1.3v11.2h-1.4v-9.1c-.4.6-.9 1-1.4 1.3-.5.2-1.1.4-1.7.5v-1.5zm6.7 4.9v-1.4h9.1v1.4zm10.1 3.8v-1.2l.6-.9c.2-.3.5-.6.8-.9.3-.3.6-.6.9-.8.3-.3.6-.6.9-.8.4-.3.7-.6 1-.9l.9-.9c.3-.3.5-.6.6-.8.2-.3.2-.5.2-.8 0-.6-.2-1.1-.5-1.4-.3-.3-.9-.4-1.6-.4-.4 0-.7.1-1 .2-.3.1-.5.3-.7.5-.2.2-.3.4-.4.7-.1.3-.1.5-.1.8h-1.5c0-.5.1-1 .3-1.4.2-.4.5-.8.8-1.1.3-.3.7-.5 1.2-.7.5-.2 1-.2 1.5-.2s1 .1 1.5.2c.4.2.8.4 1.1.6.3.3.6.6.8 1 .2.4.3.8.3 1.2 0 .5-.1.9-.3 1.4-.2.5-.5.9-.8 1.3-.3.4-.7.8-1.1 1.2-.4.4-.9.7-1.3 1.1-.4.4-.9.7-1.2 1-.4.3-.7.7-1 1h5.9v1.4H122v-.4zm15.2 0v-11.2h1.9l4.2 9.2c.7-1.5 1.4-3 2.1-4.6.7-1.5 1.4-3.1 2.1-4.6h1.9v11.2H148v-8.8c-.7 1.5-1.3 2.9-2 4.4-.7 1.5-1.3 2.9-2 4.4h-1.3l-4.1-8.8v8.8h-1.4zm18.5-8.2c.7 0 1.3.1 1.8.3.5.2.9.5 1.3.9.3.4.6.8.7 1.3.2.5.2 1 .2 1.6 0 .5-.1 1.1-.2 1.6-.2.5-.4.9-.7 1.3-.3.4-.8.7-1.3.9-.5.2-1.1.3-1.8.3s-1.2-.1-1.7-.3c-.5-.2-.9-.5-1.3-.9-.3-.4-.6-.8-.7-1.3-.2-.5-.2-1-.2-1.6 0-.6.1-1.1.2-1.6.2-.5.4-1 .7-1.3.3-.4.7-.7 1.3-.9.5-.2 1-.3 1.7-.3zm2.6 4.2c0-.4-.1-.7-.2-1.1-.1-.4-.3-.7-.5-.9-.2-.3-.5-.5-.8-.7-.3-.2-.7-.2-1.2-.2-.4 0-.8.1-1.1.2-.3.2-.6.4-.8.7-.2.3-.4.6-.5.9-.1.4-.2.7-.2 1.1 0 .4.1.7.2 1.1.1.3.3.7.5.9.2.3.5.5.8.6.3.2.7.2 1.1.2.4 0 .8-.1 1.2-.2.3-.2.6-.4.8-.6.2-.3.4-.6.5-.9.1-.4.2-.7.2-1.1zm4.8 4h-1.4v-8h1.4v1.1c.3-.4.7-.8 1.1-1 .5-.2.9-.3 1.4-.3.7 0 1.2.1 1.6.3.4.2.7.4.9.8.2.3.3.7.4 1.1.1.4.1.8.1 1.2v4.8h-1.4V465c0-.2-.1-.5-.2-.6-.1-.2-.2-.3-.4-.5l-.6-.3c-.2-.1-.4-.1-.7-.1-.4 0-.7.1-1 .2-.3.1-.5.3-.7.5-.2.2-.3.4-.4.7-.1.3-.2.5-.2.8v4.7h.1zm10.9-4.8c.4-.1.8-.2 1.1-.2.4-.1.7-.2.9-.3 0-.5-.2-.9-.5-1.2-.3-.2-.8-.4-1.4-.4-.5 0-.9.1-1.2.3-.3.2-.5.5-.6 1h-1.5c0-.4.2-.8.3-1.1.2-.3.4-.6.7-.8.3-.2.6-.4.9-.5.3-.1.7-.2 1.1-.2 1.1 0 2 .2 2.6.7.6.5.9 1.2.9 2.3v3.5c0 .3 0 .4.1.5.1.1.3.1.4 0 .1 0 .2-.1.3-.2l.1 1.1c-.2.1-.3.2-.5.3h-.5c-.1 0-.2 0-.3-.1-.1-.1-.2-.1-.3-.3-.1-.1-.2-.3-.3-.5-.1-.2-.1-.4-.1-.7-.3.4-.7.8-1.2 1.1-.5.3-1.1.4-1.7.4-.4 0-.8 0-1.1-.1-.3-.1-.6-.2-.9-.4-.3-.2-.4-.4-.6-.7-.2-.3-.2-.7-.2-1.1 0-.4.1-.8.3-1.1.2-.3.5-.5.8-.7.3-.2.7-.3 1.1-.4.5 0 .9-.1 1.3-.2zm-2 2.5c0 .4.2.7.5.9.3.2.7.3 1.1.3.4 0 .7-.1 1-.3.3-.2.6-.4.8-.7.2-.3.4-.6.5-.9.1-.3.2-.7.2-1-.2.1-.5.2-.7.2-.3.1-.6.1-.8.2-.3.1-.6.1-.9.2-.3.1-.6.2-.8.3-.2.1-.4.2-.6.4-.2.2-.3.2-.3.4zm8.7-4.5h-1.5v-1.2h1.5v-2.2h1.4v2.2h1.7v1.2h-1.7v4.9c0 .3.1.5.2.6.1.1.4.2.7.2h.4c.2 0 .3-.1.5-.1v1.2c-.2.1-.4.1-.6.1-.2 0-.4.1-.6.1-.5 0-.8 0-1.1-.1-.3-.1-.5-.2-.6-.4l-.3-.6c0-.2-.1-.5-.1-.8v-5.1h.1zm6.1 3.1c0 .3.1.7.2 1 .1.3.3.6.5.8.2.2.5.4.8.5.3.1.7.2 1.1.2.6 0 1-.1 1.4-.4.4-.3.7-.7.8-1.2h1.5c-.3.9-.7 1.7-1.4 2.1-.7.5-1.5.7-2.5.7-.6 0-1.2-.1-1.7-.3-.5-.2-.9-.5-1.2-.9-.3-.4-.6-.8-.7-1.4-.2-.5-.2-1-.2-1.6 0-.5.1-1 .3-1.5.2-.5.4-.9.8-1.3.3-.4.7-.7 1.2-.9.5-.2 1-.3 1.7-.3s1.2.1 1.7.3c.5.2.9.5 1.2 1 .3.4.6.9.7 1.4.2.5.2 1.1.2 1.8h-6.4zm4.8-1.1c-.1-.6-.3-1.1-.7-1.5-.4-.4-1-.6-1.8-.6-.3 0-.7.1-.9.2-.3.1-.5.3-.7.4-.2.2-.4.4-.5.6-.1.2-.2.5-.2.8h4.8v.1zM555 461.7c.4 0 .8-.1 1.1-.3l.9-.6c.3-.2.5-.5.7-.8.2-.3.4-.5.5-.7h1.3v11.2h-1.4v-9.1c-.4.6-.9 1-1.4 1.3-.5.2-1.1.4-1.7.5v-1.5zm12.8 8.7v-11.2h1.9l4.2 9.2c.7-1.5 1.4-3 2.1-4.6.7-1.5 1.4-3.1 2.1-4.6h1.9v11.2h-1.4v-8.8c-.7 1.5-1.3 2.9-2 4.4-.7 1.5-1.3 2.9-2 4.4h-1.3l-4.1-8.8v8.8h-1.4zm18.5-8.2c.7 0 1.3.1 1.8.3.5.2.9.5 1.3.9.3.4.6.8.7 1.3.2.5.2 1 .2 1.6 0 .5-.1 1.1-.2 1.6-.2.5-.4.9-.7 1.3-.3.4-.8.7-1.3.9-.5.2-1.1.3-1.8.3s-1.2-.1-1.7-.3c-.5-.2-.9-.5-1.3-.9s-.6-.8-.7-1.3c-.2-.5-.2-1-.2-1.6 0-.6.1-1.1.2-1.6.2-.5.4-1 .7-1.3.3-.4.7-.7 1.3-.9.5-.2 1.1-.3 1.7-.3zm2.6 4.2c0-.4-.1-.7-.2-1.1-.1-.4-.3-.7-.5-.9-.2-.3-.5-.5-.8-.7-.3-.2-.7-.2-1.2-.2-.4 0-.8.1-1.1.2-.3.2-.6.4-.8.7-.2.3-.4.6-.5.9-.1.4-.2.7-.2 1.1 0 .4.1.7.2 1.1.1.3.3.7.5.9.2.3.5.5.8.6.3.2.7.2 1.1.2.4 0 .8-.1 1.2-.2.3-.2.6-.4.8-.6.2-.3.4-.6.5-.9.1-.3.2-.7.2-1.1zm4.9 4h-1.4v-8h1.4v1.1c.3-.4.7-.8 1.1-1 .5-.2.9-.3 1.4-.3.7 0 1.2.1 1.6.3.4.2.7.4.9.8.2.3.3.7.4 1.1.1.4.1.8.1 1.2v4.8h-1.4V465c0-.2-.1-.5-.2-.6-.1-.1-.2-.3-.4-.5l-.6-.3c-.2-.1-.4-.1-.7-.1-.4 0-.7.1-1 .2-.3.1-.5.3-.7.5-.2.2-.3.4-.4.7-.1.3-.2.5-.2.8v4.7h.1zm10.8-4.8c.4-.1.8-.2 1.1-.2.3 0 .7-.2.9-.3 0-.5-.2-.9-.5-1.2-.3-.2-.8-.4-1.4-.4-.5 0-.9.1-1.2.3-.3.2-.5.5-.6 1h-1.5c0-.4.2-.8.3-1.1.1-.3.4-.6.7-.8.3-.2.6-.4.9-.5.3-.1.7-.2 1.1-.2 1.1 0 2 .2 2.6.7.6.5.9 1.2.9 2.3v3.5c0 .3 0 .4.1.5.1.1.3.1.4 0 .1-.1.2-.1.3-.2l.1 1.1c-.2.1-.3.2-.5.3h-.5c-.1 0-.2 0-.3-.1-.1-.1-.2-.1-.3-.3-.1-.2-.2-.3-.3-.5-.1-.2-.1-.4-.1-.7-.3.4-.7.8-1.2 1.1-.5.3-1.1.4-1.7.4-.4 0-.8 0-1.1-.1-.3-.1-.6-.2-.9-.4-.3-.2-.4-.4-.6-.7-.2-.3-.2-.7-.2-1.1 0-.4.1-.8.3-1.1.2-.3.5-.5.8-.7.3-.2.7-.3 1.1-.4.5 0 .9-.1 1.3-.2zm-2 2.5c0 .4.2.7.5.9.3.2.7.3 1.1.3.4 0 .7-.1 1-.3.3-.2.6-.4.8-.7.2-.3.4-.6.5-.9.1-.3.2-.7.2-1-.2.1-.5.2-.7.2-.2 0-.6.1-.8.2-.3.1-.6.1-.9.2-.3.1-.6.2-.8.3-.2.1-.4.2-.6.4-.2.2-.3.2-.3.4zm8.7-4.5h-1.5v-1.2h1.5v-2.2h1.4v2.2h1.7v1.2h-1.7v4.9c0 .3.1.5.2.6.1.1.4.2.7.2h.4c.2 0 .3-.1.5-.1v1.2c-.2.1-.4.1-.6.1-.2 0-.4.1-.6.1-.5 0-.8 0-1.1-.1-.3-.1-.5-.2-.6-.4l-.3-.6c0-.2-.1-.5-.1-.8v-5.1h.1zM765.9 461.7c.4 0 .8-.1 1.1-.3l.9-.6c.3-.2.5-.5.7-.8.2-.3.4-.5.5-.7h1.3v11.2H769v-9.1c-.4.6-.9 1-1.4 1.3-.5.2-1.1.4-1.7.5v-1.5zm12.8 8.7v-11.2h1.9l4.2 9.2c.7-1.5 1.4-3 2.1-4.6.7-1.5 1.4-3.1 2.1-4.6h1.9v11.2h-1.4v-8.8c-.7 1.5-1.3 2.9-2 4.4-.7 1.5-1.3 2.9-2 4.4h-1.3l-4.1-8.8v8.8h-1.4zm18.5-8.2c.7 0 1.3.1 1.8.3.5.2.9.5 1.3.9.3.4.6.8.7 1.3.2.5.2 1 .2 1.6 0 .5-.1 1.1-.2 1.6-.2.5-.4.9-.7 1.3-.3.4-.8.7-1.3.9-.5.2-1.1.3-1.8.3s-1.2-.1-1.7-.3c-.5-.2-.9-.5-1.2-.9-.3-.4-.6-.8-.7-1.3-.2-.5-.2-1-.2-1.6 0-.6.1-1.1.2-1.6.2-.5.4-1 .7-1.3.3-.4.7-.7 1.2-.9.5-.2 1-.3 1.7-.3zm2.6 4.2c0-.4-.1-.7-.2-1.1-.1-.4-.3-.7-.5-.9-.2-.3-.5-.5-.8-.7-.3-.2-.7-.2-1.2-.2-.4 0-.8.1-1.1.2-.3.2-.6.4-.8.7-.2.3-.4.6-.5.9-.1.3-.2.7-.2 1.1 0 .4 0 .7.2 1.1.2.4.3.7.5.9.2.3.5.5.8.6.3.2.7.2 1.1.2.4 0 .8-.1 1.2-.2.3-.2.6-.4.8-.6.2-.3.4-.6.5-.9.1-.3.2-.7.2-1.1zm4.8 4h-1.4v-8h1.4v1.1c.3-.4.7-.8 1.1-1 .5-.2.9-.3 1.4-.3.7 0 1.2.1 1.6.3.4.2.7.4.9.8.2.3.3.7.4 1.1.1.4.1.8.1 1.2v4.8h-1.4V465c0-.2-.1-.5-.2-.6-.1-.1-.2-.3-.4-.5l-.6-.3c-.2-.1-.4-.1-.7-.1-.4 0-.7.1-1 .2-.3.1-.5.3-.7.5-.2.2-.3.4-.4.7-.1.3-.2.5-.2.8v4.7h.1zm10.9-4.8c.4-.1.8-.2 1.1-.2.3 0 .7-.2.9-.3 0-.5-.2-.9-.5-1.2-.3-.2-.8-.4-1.4-.4-.5 0-.9.1-1.2.3-.3.2-.5.5-.6 1h-1.5c0-.4.2-.8.3-1.1.1-.3.4-.6.7-.8.3-.2.6-.4.9-.5.3-.1.7-.2 1.1-.2 1.1 0 2 .2 2.6.7.6.5.9 1.2.9 2.3v3.5c0 .3 0 .4.1.5.1.1.3.1.4 0 .1-.1.2-.1.3-.2l.1 1.1c-.2.1-.3.2-.5.3h-.5c-.1 0-.2 0-.3-.1-.1-.1-.2-.1-.3-.3-.1-.2-.2-.3-.3-.5-.1-.2-.1-.4-.1-.7-.3.4-.7.8-1.2 1.1-.5.3-1.1.4-1.7.4-.4 0-.8 0-1.1-.1-.3-.1-.6-.2-.9-.4-.3-.2-.4-.4-.6-.7-.2-.3-.2-.7-.2-1.1 0-.4.1-.8.3-1.1.2-.3.5-.5.8-.7.3-.2.7-.3 1.1-.4.5 0 .9-.1 1.3-.2zm-2 2.5c0 .4.2.7.5.9.3.2.7.3 1.1.3.4 0 .7-.1 1-.3.3-.2.6-.4.8-.7.2-.3.4-.6.5-.9.1-.3.2-.7.2-1-.2.1-.5.2-.7.2-.2 0-.6.1-.8.2-.3.1-.6.1-.9.2-.3.1-.6.2-.8.3-.2.1-.4.2-.6.4-.2.2-.3.2-.3.4zm8.7-4.5h-1.5v-1.2h1.5v-2.2h1.4v2.2h1.7v1.2h-1.7v4.9c0 .3.1.5.2.6.1.1.4.2.7.2h.4c.2 0 .3-.1.5-.1v1.2c-.2.1-.4.1-.6.1-.2 0-.4.1-.6.1-.5 0-.8 0-1.1-.1-.3-.1-.5-.2-.6-.4l-.3-.6c0-.2-.1-.5-.1-.8v-5.1h.1zM210.9 253.2l4.8-11.2h1.6l4.8 11.2h-1.6l-1.3-3.2h-5.5l-1.3 3.2h-1.5zm7.8-4.5l-2.2-5.2-2.3 5.2h4.5zm10.2-3.5h1.4v8h-1.4v-1.3c-.3.5-.7.9-1.1 1.1-.4.2-.9.3-1.4.3-.6 0-1.2-.1-1.5-.3-.4-.2-.7-.4-.9-.7-.2-.3-.3-.7-.4-1.1-.1-.4-.1-.8-.1-1.2v-4.8h1.4v5.3c0 .2.1.5.2.6.1.2.2.3.4.5s.4.2.6.3c.2.1.4.1.7.1.4 0 .7-.1 1-.2.3-.1.5-.3.7-.5.2-.2.3-.4.4-.7.1-.3.2-.5.2-.8v-4.6h-.2zm4.6 8v-6.7h-1.6v-1.3h1.6v-2.4c0-.6.2-1 .5-1.3.3-.3.9-.5 1.6-.5.2 0 .4 0 .6.1.2.1.4.1.6.2v1.2c-.2-.1-.3-.1-.5-.2-.1 0-.2-.1-.3-.1-.2 0-.4 0-.6.1-.1 0-.2.1-.3.2-.1.1-.1.2-.2.3v2.4h1.7v1.3h-1.7v6.7h-1.4zm6.6 0h-1.4v-12h1.4v5.2c.1-.2.3-.4.5-.6.2-.2.4-.3.6-.4.2-.1.5-.2.7-.3.2-.1.5-.1.7-.1.6 0 1.2.1 1.6.3.4.2.8.5 1.1.9.3.4.5.8.6 1.3.1.5.2 1 .2 1.6 0 .6-.1 1.1-.2 1.6s-.4.9-.6 1.3c-.3.4-.7.7-1.1.9-.4.2-1 .3-1.6.3-.5 0-1-.1-1.5-.4-.5-.3-.8-.6-1.1-1.1v1.5h.1zm2.4-6.9c-.4 0-.8.1-1.1.2-.3.1-.5.4-.7.6-.2.3-.3.6-.4.9-.1.3-.1.7-.2 1.1 0 .4.1.8.2 1.1.1.3.3.7.5 1 .2.3.5.5.8.7.3.2.7.3 1.1.3.4 0 .8-.1 1-.2.3-.2.5-.4.7-.7.2-.3.3-.6.4-.9.1-.4.1-.7.1-1.1 0-.4 0-.7-.1-1.1-.1-.3-.2-.7-.4-.9-.2-.2-.4-.5-.7-.6-.4-.3-.7-.4-1.2-.4zm8.7 2.2c.4-.1.8-.2 1.1-.2.4-.1.7-.2.9-.3 0-.5-.2-.9-.5-1.2-.3-.2-.8-.4-1.4-.4-.5 0-.9.1-1.2.3-.3.2-.5.5-.6 1H248c0-.4.2-.8.3-1.1.2-.3.4-.6.7-.8.3-.2.6-.4.9-.5.3-.1.7-.2 1.1-.2 1.1 0 2 .2 2.6.7.6.5.9 1.2.9 2.3v3.5c0 .3 0 .4.1.5.1.1.3.1.4 0 .1 0 .2-.1.3-.2l.1 1.1c-.2.1-.3.2-.5.3h-.5c-.1 0-.2 0-.3-.1-.1-.1-.2-.1-.3-.3-.1-.1-.2-.3-.3-.5-.1-.2-.1-.4-.1-.7-.3.4-.7.8-1.2 1.1-.5.3-1.1.4-1.7.4-.4 0-.8 0-1.1-.1-.3-.1-.6-.2-.9-.4-.3-.2-.4-.4-.6-.7-.2-.3-.2-.7-.2-1.1 0-.4.1-.8.3-1.1.2-.3.5-.5.8-.7.3-.2.7-.3 1.1-.4.5 0 .9-.1 1.3-.2zm-1.9 2.5c0 .4.2.7.5.9.3.2.7.3 1.1.3.4 0 .7-.1 1-.3.3-.2.6-.4.8-.7.2-.3.4-.6.5-.9.1-.3.2-.7.2-1-.2.1-.5.2-.7.2-.3.1-.6.1-.8.2-.3.1-.6.1-.9.2-.3.1-.6.2-.8.3-.2.1-.4.2-.6.4-.2.2-.3.1-.3.4zm13.2-5.8h1.4v8h-1.4v-1.3c-.3.5-.7.9-1.1 1.1-.4.2-.9.3-1.4.3-.6 0-1.2-.1-1.5-.3-.4-.2-.7-.4-.9-.7-.2-.3-.3-.7-.4-1.1-.1-.4-.1-.8-.1-1.2v-4.8h1.4v5.3c0 .2.1.5.2.6.1.2.2.3.4.5s.4.2.6.3c.2.1.4.1.7.1.4 0 .7-.1 1-.2.3-.1.5-.3.7-.5.2-.2.3-.4.4-.7.1-.3.2-.5.2-.8v-4.6h-.2zM212.4 272.4v-11.2h4.9c.5 0 1 .1 1.4.3.4.2.8.4 1.1.7.3.3.5.6.7 1 .2.4.3.8.3 1.2 0 .4-.1.9-.3 1.3-.2.4-.4.7-.7 1-.3.3-.7.5-1.1.7-.4.2-.9.3-1.4.3h-3.4v4.7h-1.5zm1.4-6h2.7c.4 0 .7 0 1-.1.3-.1.6-.2.8-.4l.6-.6c.1-.2.2-.5.2-.8 0-.3-.1-.6-.2-.8-.1-.2-.3-.4-.6-.6-.2-.2-.5-.3-.8-.4-.3-.1-.7-.1-1-.1h-2.7v3.8zm8.5-4.7c0-.3.1-.5.3-.6.2-.2.4-.3.6-.3.2 0 .5.1.6.3.2.2.3.4.3.6 0 .2-.1.5-.3.6-.2.2-.4.3-.6.3-.3 0-.5-.1-.6-.3-.2-.1-.3-.4-.3-.6zm1.6 2.7v8h-1.4v-8h1.4zm4.3 8h-1.4v-12h1.4zm5.9-8.1c.7 0 1.3.1 1.8.3.5.2.9.5 1.3.9.3.4.6.8.7 1.3.2.5.2 1 .2 1.6 0 .5-.1 1.1-.2 1.6-.2.5-.4.9-.7 1.3-.3.4-.8.7-1.3.9-.5.2-1.1.3-1.8.3s-1.2-.1-1.7-.3c-.5-.2-.9-.5-1.3-.9-.3-.4-.6-.8-.7-1.3-.2-.5-.2-1-.2-1.6 0-.6.1-1.1.2-1.6.2-.5.4-1 .7-1.3.3-.4.7-.7 1.3-.9.5-.2 1.1-.3 1.7-.3zm2.6 4.1c0-.4-.1-.7-.2-1.1-.1-.4-.3-.7-.5-.9-.2-.3-.5-.5-.8-.7-.3-.2-.7-.2-1.2-.2-.4 0-.8.1-1.1.2-.3.2-.6.4-.8.7-.2.3-.4.6-.5.9-.1.4-.2.7-.2 1.1 0 .4.1.7.2 1.1.1.3.3.7.5.9.2.3.5.5.8.6.3.2.7.2 1.1.2.4 0 .8-.1 1.2-.2.3-.2.6-.4.8-.6.2-.3.4-.6.5-.9.2-.3.2-.7.2-1.1zm4.1-2.7h-1.5v-1.2h1.5v-2.2h1.4v2.2h1.7v1.2h-1.7v4.9c0 .3.1.5.2.6.1.1.4.2.7.2h.4c.2 0 .3-.1.5-.1v1.2c-.2.1-.4.1-.6.1-.2 0-.4.1-.6.1-.5 0-.8 0-1.1-.1-.3-.1-.5-.2-.6-.4l-.3-.6c0-.2-.1-.5-.1-.8v-5.1h.1zm6.7 10.5h-1.4v-11.8h1.4v1.1c.3-.4.7-.7 1.2-.9.5-.2 1-.3 1.5-.3.6 0 1.2.1 1.6.3.5.2.8.5 1.1.9.3.4.5.8.7 1.3.1.5.2 1 .2 1.6 0 .5-.1 1.1-.2 1.6s-.4.9-.6 1.3c-.3.4-.7.7-1.1.9-.5.2-1 .3-1.6.3-.5 0-1-.1-1.4-.3-.4-.2-.9-.5-1.2-1v5h-.2zm0-7.9c0 .4.1.8.2 1.1.1.4.3.7.5 1 .2.3.5.5.8.7.3.2.7.2 1.1.2.4 0 .7-.1 1-.2.3-.2.5-.4.7-.7.2-.3.3-.6.4-1 .1-.4.1-.7.1-1.1 0-.4 0-.7-.1-1.1-.1-.3-.2-.6-.4-.9-.2-.3-.4-.5-.7-.6-.3-.2-.6-.2-1-.2s-.8.1-1.1.2c-.3.2-.6.4-.8.6-.2.3-.4.6-.4.9-.3.4-.3.8-.3 1.1zm9.6 4.1h-1.4v-8h1.3v.9c.2-.3.4-.6.8-.8.3-.2.7-.3 1.1-.3h.5c.2 0 .3 0 .5.1v1.4c-.2-.1-.3-.1-.5-.1h-.3c-.3 0-.6.1-.9.2-.3.1-.5.3-.6.4-.2.2-.3.4-.4.6-.1.2-.1.5-.1.8v4.8zm7.8-8.1c.7 0 1.3.1 1.8.3.5.2.9.5 1.3.9.3.4.6.8.7 1.3.2.5.2 1 .2 1.6 0 .5-.1 1.1-.2 1.6-.2.5-.4.9-.7 1.3-.3.4-.8.7-1.3.9-.5.2-1.1.3-1.8.3s-1.2-.1-1.7-.3c-.5-.2-.9-.5-1.3-.9-.3-.4-.6-.8-.7-1.3-.2-.5-.2-1-.2-1.6 0-.6.1-1.1.2-1.6.2-.5.4-1 .7-1.3.3-.4.7-.7 1.3-.9.5-.2 1.1-.3 1.7-.3zm2.6 4.1c0-.4-.1-.7-.2-1.1-.1-.4-.3-.7-.5-.9-.2-.3-.5-.5-.8-.7-.3-.2-.7-.2-1.2-.2-.4 0-.8.1-1.1.2-.3.2-.6.4-.8.7-.2.3-.4.6-.5.9-.1.4-.2.7-.2 1.1 0 .4.1.7.2 1.1.1.3.3.7.5.9.2.3.5.5.8.6.3.2.7.2 1.1.2.4 0 .8-.1 1.2-.2.3-.2.6-.4.8-.6.2-.3.4-.6.5-.9.2-.3.2-.7.2-1.1zm2.4 6.9c.3 0 .5 0 .7-.1.2-.1.3-.1.4-.2.1-.1.1-.2.2-.4v-10.2h1.4v9.3c0 .5 0 1-.1 1.4-.1.4-.1.7-.3.9-.1.2-.3.4-.5.5-.2.1-.5.2-.9.2h-.4c-.1 0-.3 0-.5-.1v-1.3zm1.2-13.6c0-.3.1-.5.3-.6.2-.2.4-.3.6-.3.3 0 .5.1.6.3.2.2.3.4.3.6 0 .2-.1.5-.3.6-.2.2-.4.3-.6.3-.3 0-.5-.1-.6-.3-.2-.1-.3-.4-.3-.6zm4.8 7.1c0 .3.1.7.2 1 .1.3.3.6.5.8.2.2.5.4.8.5.3.1.7.2 1.1.2.6 0 1-.1 1.4-.4.4-.3.7-.7.8-1.2h1.5c-.3.9-.7 1.7-1.4 2.1-.7.5-1.5.7-2.5.7-.6 0-1.2-.1-1.7-.3-.5-.2-.9-.5-1.2-.9-.3-.4-.6-.8-.7-1.4-.2-.5-.2-1-.2-1.6 0-.5.1-1 .3-1.5.2-.5.4-.9.8-1.3.3-.4.7-.7 1.2-.9.5-.2 1-.3 1.7-.3s1.2.1 1.7.3c.5.2.9.5 1.2 1 .3.4.6.9.7 1.4.2.5.2 1.1.2 1.8h-6.4zm4.9-1.2c-.1-.6-.3-1.1-.7-1.5-.4-.4-1-.6-1.8-.6-.3 0-.7.1-.9.2-.3.1-.5.3-.7.4-.2.2-.4.4-.5.6-.1.2-.2.5-.2.8h4.8v.1zm5.1.1c.6-.5 1.2-1.1 1.9-1.6s1.3-1.1 1.9-1.6h1.9l-3.8 3.4c.6.7 1.3 1.5 2 2.3.7.8 1.3 1.6 2 2.3H290l-3.3-3.7-.7.6v3.1h-1.4v-11.8h1.4v7h-.1zm8.1-2h-1.5v-1.2h1.5v-2.2h1.4v2.2h1.7v1.2h-1.7v4.9c0 .3.1.5.2.6.1.1.4.2.7.2h.4c.2 0 .3-.1.5-.1v1.2c-.2.1-.4.1-.6.1-.2 0-.4.1-.6.1-.5 0-.8 0-1.1-.1-.3-.1-.5-.2-.6-.4l-.3-.6c0-.2-.1-.5-.1-.8v-5.1h.1zm6.1 3.1c0 .3.1.7.2 1 .1.3.3.6.5.8.2.2.5.4.8.5.3.1.7.2 1.1.2.6 0 1-.1 1.4-.4.4-.3.7-.7.8-1.2h1.5c-.3.9-.7 1.7-1.4 2.1-.7.5-1.5.7-2.5.7-.6 0-1.2-.1-1.7-.3-.5-.2-.9-.5-1.2-.9-.3-.4-.6-.8-.7-1.4-.2-.5-.2-1-.2-1.6 0-.5.1-1 .3-1.5.2-.5.4-.9.8-1.3.3-.4.7-.7 1.2-.9.5-.2 1-.3 1.7-.3s1.2.1 1.7.3c.5.2.9.5 1.2 1 .3.4.6.9.7 1.4.2.5.2 1.1.2 1.8h-6.4zm4.8-1.2c-.1-.6-.3-1.1-.7-1.5-.4-.4-1-.6-1.8-.6-.3 0-.7.1-.9.2-.3.1-.5.3-.7.4-.2.2-.4.4-.5.6-.1.2-.2.5-.2.8h4.8v.1zm14.1-3.2h1.4v8H319v-1.3c-.3.5-.7.9-1.1 1.1-.4.2-.9.3-1.4.3-.6 0-1.2-.1-1.5-.3-.4-.2-.7-.4-.9-.7-.2-.3-.3-.7-.4-1.1-.1-.4-.1-.8-.1-1.2v-4.8h1.4v5.3c0 .2.1.5.2.6.1.2.2.3.4.5s.4.2.6.3c.2.1.4.1.7.1.4 0 .7-.1 1-.2.3-.1.5-.3.7-.5.2-.2.3-.4.4-.7.1-.3.2-.5.2-.8v-4.6h-.2zm5.2 8h-1.4v-8h1.4v1.1c.3-.4.7-.8 1.1-1 .5-.2.9-.3 1.4-.3.7 0 1.2.1 1.6.3.4.2.7.4.9.8.2.3.3.7.4 1.1.1.4.1.8.1 1.2v4.8h-1.4V267c0-.2-.1-.5-.2-.6-.1-.2-.2-.3-.4-.5l-.6-.3c-.2-.1-.4-.1-.7-.1-.4 0-.7.1-1 .2-.3.1-.5.3-.7.5-.2.2-.3.4-.4.7-.1.3-.2.5-.2.8v4.7h.1zm13.9-1.2c-.2.4-.6.8-1.1 1.1-.5.3-1 .4-1.5.4-.6 0-1.2-.1-1.6-.3-.4-.2-.8-.5-1.1-.9-.3-.4-.5-.8-.6-1.3-.1-.5-.2-1-.2-1.6 0-.6.1-1.1.2-1.6s.4-1 .6-1.3c.3-.4.7-.7 1.1-.9.4-.2 1-.3 1.6-.3.2 0 .5 0 .7.1.3.1.5.2.7.3.2.1.4.3.6.4.2.2.4.4.5.6v-5.2h1.4v12H338v-1.5h.1zm-2.4-5.7c-.4 0-.8.1-1.1.2-.3.2-.5.4-.7.6-.2.3-.3.6-.4.9-.1.3-.1.7-.1 1.1 0 .4 0 .7.1 1.1.1.4.2.7.4.9.2.3.4.5.7.7.3.2.6.2 1 .2s.7-.1 1.1-.3c.3-.2.6-.4.8-.7.2-.3.4-.6.5-1 .1-.4.2-.7.2-1.1 0-.4-.1-.7-.2-1.1-.1-.3-.2-.6-.4-.9-.2-.3-.4-.5-.7-.6-.4.1-.7 0-1.2 0zM212.4 291.6v-11.2h1.4v4.8h6.2v-4.8h1.5v11.2H220v-5.2h-6.2v5.2zm14.6-4.7c.4-.1.8-.2 1.1-.2.4-.1.7-.2.9-.3 0-.5-.2-.9-.5-1.2-.3-.2-.8-.4-1.4-.4-.5 0-.9.1-1.2.3-.3.2-.5.5-.6 1h-1.5c0-.4.2-.8.3-1.1.2-.3.4-.6.7-.8.3-.2.6-.4.9-.5.3-.1.7-.2 1.1-.2 1.1 0 2 .2 2.6.7.6.5.9 1.2.9 2.3v3.5c0 .3 0 .4.1.5.1.1.3.1.4 0 .1 0 .2-.1.3-.2l.1 1.1c-.2.1-.3.2-.5.3h-.5c-.1 0-.2 0-.3-.1-.1-.1-.2-.1-.3-.3-.1-.1-.2-.3-.3-.5-.1-.2-.1-.4-.1-.7-.3.4-.7.8-1.2 1.1-.5.3-1.1.4-1.7.4-.4 0-.8 0-1.1-.1-.3-.1-.6-.2-.9-.4-.3-.2-.4-.4-.6-.7-.2-.3-.2-.7-.2-1.1 0-.4.1-.8.3-1.1.2-.3.5-.5.8-.7.3-.2.7-.3 1.1-.4.5 0 .9-.1 1.3-.2zm-2 2.5c0 .4.2.7.5.9.3.2.7.3 1.1.3.4 0 .7-.1 1-.3.3-.2.6-.4.8-.7.2-.3.4-.6.5-.9.1-.3.2-.7.2-1-.2.1-.5.2-.7.2-.3.1-.6.1-.8.2-.3.1-.6.1-.9.2-.3.1-.6.2-.8.3-.2.1-.4.2-.6.4-.2.2-.3.1-.3.4zm9.5 2.2h-1.4v-8h1.4v1.1c.3-.4.7-.8 1.1-1 .5-.2.9-.3 1.4-.3.7 0 1.2.1 1.6.3.4.2.7.4.9.8.2.3.3.7.4 1.1.1.4.1.8.1 1.2v4.8h-1.4v-5.4c0-.2-.1-.5-.2-.6-.1-.2-.2-.3-.4-.5l-.6-.3c-.2-.1-.4-.1-.7-.1-.4 0-.7.1-1 .2-.3.1-.5.3-.7.5-.2.2-.3.4-.4.7-.1.3-.2.5-.2.8v4.7h.1zm13.9-1.2c-.2.4-.6.8-1.1 1.1-.5.3-1 .4-1.5.4-.6 0-1.2-.1-1.6-.3-.4-.2-.8-.5-1.1-.9-.3-.4-.5-.8-.6-1.3-.1-.5-.2-1-.2-1.6 0-.6.1-1.1.2-1.6s.4-1 .6-1.3c.3-.4.7-.7 1.1-.9.4-.2 1-.3 1.6-.3.2 0 .5 0 .7.1.3.1.5.2.7.3.2.1.4.3.6.4.2.2.4.4.5.6v-5.2h1.4v12h-1.4v-1.5h.1zm-2.4-5.7c-.4 0-.8.1-1.1.2-.3.2-.5.4-.7.6-.2.3-.3.6-.4.9-.1.3-.1.7-.1 1.1 0 .4 0 .7.1 1.1.1.4.2.7.4.9.2.3.4.5.7.7.3.2.6.2 1 .2s.7-.1 1.1-.3c.3-.2.6-.4.8-.7.2-.3.4-.6.5-1 .1-.4.2-.7.2-1.1 0-.4-.1-.7-.2-1.1-.1-.3-.2-.6-.4-.9-.2-.3-.4-.5-.7-.6-.4.1-.8 0-1.2 0zm7.3 6.9h-1.4v-12h1.4zm7.8-8h1.4v8h-1.4v-1.3c-.3.5-.7.9-1.1 1.1-.4.2-.9.3-1.4.3-.6 0-1.2-.1-1.5-.3-.4-.2-.7-.4-.9-.7-.2-.3-.3-.7-.4-1.1-.1-.4-.1-.8-.1-1.2v-4.8h1.4v5.3c0 .2.1.5.2.6.1.2.2.3.4.5s.4.2.6.3c.2.1.4.1.7.1.4 0 .7-.1 1-.2.3-.1.5-.3.7-.5.2-.2.3-.4.4-.7.1-.3.2-.5.2-.8v-4.6h-.2zm5.2 8h-1.4v-8h1.4v1.1c.3-.4.7-.8 1.1-1 .5-.2.9-.3 1.4-.3.7 0 1.2.1 1.6.3.4.2.7.4.9.8.2.3.3.7.4 1.1.1.4.1.8.1 1.2v4.8h-1.4v-5.4c0-.2-.1-.5-.2-.6-.1-.2-.2-.3-.4-.5l-.6-.3c-.2-.1-.4-.1-.7-.1-.4 0-.7.1-1 .2-.3.1-.5.3-.7.5-.2.2-.3.4-.4.7-.1.3-.2.5-.2.8v4.7h.1zm13.7-8h1.4v8.7c0 .5-.1.9-.2 1.3s-.4.8-.7 1.1c-.3.3-.7.6-1.2.7-.5.2-1 .3-1.7.3-.4 0-.8 0-1.2-.1-.4-.1-.8-.2-1.1-.5-.3-.2-.6-.5-.8-.8-.2-.3-.4-.7-.4-1.2h1.4l.3.6c.1.2.3.3.5.4.2.1.4.2.6.2.2 0 .5.1.7.1.3 0 .6 0 .9-.1.3-.1.5-.2.7-.4.2-.2.4-.4.5-.6.1-.2.2-.5.2-.8v-1.8c-.3.4-.7.6-1.1.8-.4.2-.9.2-1.3.2-.6 0-1.2-.1-1.6-.3-.5-.2-.9-.5-1.2-.9-.3-.4-.5-.8-.7-1.3-.2-.5-.2-1-.2-1.6 0-.6.1-1.1.2-1.6s.4-.9.7-1.3c.3-.4.7-.7 1.2-.9.5-.2 1-.3 1.6-.3.5 0 1 .1 1.4.3.4.2.8.5 1.1 1v-1.2zm0 3.9c0-.4-.1-.7-.2-1-.1-.3-.3-.6-.5-.9-.2-.3-.4-.5-.7-.6-.3-.1-.6-.2-1-.2s-.7.1-1 .2c-.3.2-.5.4-.7.6-.2.2-.4.6-.5.9-.1.3-.2.7-.2 1.1 0 .4.1.7.2 1.1.1.4.3.7.5.9.2.3.5.5.8.6.3.2.7.2 1 .2.4 0 .8-.1 1.1-.2.3-.2.5-.4.7-.6.2-.2.3-.6.4-.9.1-.4.1-.7.1-1.2zm3.6-1.8c0-.4.1-.7.3-1 .2-.3.4-.5.7-.7.3-.2.6-.3 1-.4.4-.1.8-.1 1.1-.1.4 0 .8.1 1.2.2.4.1.7.3 1 .5.3.2.5.5.7.8.2.3.3.7.3 1.1h-1.4c0-.2-.1-.4-.2-.6-.1-.2-.2-.3-.4-.4-.2-.1-.4-.2-.6-.2-.2 0-.4-.1-.7-.1-.5 0-.9.1-1.2.3-.3.2-.5.4-.5.7 0 .1.1.3.2.4.1.1.3.2.4.3.1.1.4.2.7.2.3.1.5.1.8.2.3.1.7.2 1 .3.4.1.7.2 1 .4.3.2.5.4.7.7.2.3.3.6.3 1s-.1.8-.3 1.2c-.2.4-.5.6-.8.8-.3.2-.7.4-1.2.5-.4.1-.9.2-1.3.2s-.8-.1-1.2-.2c-.4-.1-.7-.3-1-.5-.3-.2-.6-.5-.8-.9-.2-.4-.3-.8-.3-1.2h1.5c0 .3.1.5.2.7.1.2.3.4.4.5l.6.3c.2.1.5.1.7.1.2 0 .5 0 .7-.1.2 0 .5-.1.6-.2.1-.1.3-.2.5-.4s.2-.3.2-.6c0-.2-.1-.3-.2-.4-.1-.1-.3-.2-.5-.3-.2-.1-.4-.2-.7-.2-.3 0-.5-.1-.8-.2-.4-.1-.7-.2-1.1-.3-.4-.1-.7-.3-1-.4-.3-.2-.6-.4-.7-.7.2-.6.1-.9.1-1.3zm11.7 1.2c.4-.1.8-.2 1.1-.2.4-.1.7-.2.9-.3 0-.5-.2-.9-.5-1.2-.3-.2-.8-.4-1.4-.4-.5 0-.9.1-1.2.3-.3.2-.5.5-.6 1h-1.5c0-.4.2-.8.3-1.1.2-.3.4-.6.7-.8.3-.2.6-.4.9-.5.3-.1.7-.2 1.1-.2 1.1 0 2 .2 2.6.7.6.5.9 1.2.9 2.3v3.5c0 .3 0 .4.1.5.1.1.3.1.4 0 .1 0 .2-.1.3-.2l.1 1.1c-.2.1-.3.2-.5.3h-.5c-.1 0-.2 0-.3-.1-.1-.1-.2-.1-.3-.3-.1-.1-.2-.3-.3-.5-.1-.2-.1-.4-.1-.7-.3.4-.7.8-1.2 1.1-.5.3-1.1.4-1.7.4-.4 0-.8 0-1.1-.1-.3-.1-.6-.2-.9-.4-.3-.2-.4-.4-.6-.7-.2-.3-.2-.7-.2-1.1 0-.4.1-.8.3-1.1.2-.3.5-.5.8-.7.3-.2.7-.3 1.1-.4.5 0 .9-.1 1.3-.2zm-2 2.5c0 .4.2.7.5.9.3.2.7.3 1.1.3.4 0 .7-.1 1-.3.3-.2.6-.4.8-.7.2-.3.4-.6.5-.9.1-.3.2-.7.2-1-.2.1-.5.2-.7.2-.3.1-.6.1-.8.2-.3.1-.6.1-.9.2-.3.1-.6.2-.8.3-.2.1-.4.2-.6.4-.2.2-.3.1-.3.4zm9.4 2.2h-1.4v-8h1.4v1.1c.3-.4.7-.8 1.1-1 .5-.2.9-.3 1.4-.3.7 0 1.2.1 1.6.3.4.2.7.4.9.8.2.3.3.7.4 1.1.1.4.1.8.1 1.2v4.8h-1.4v-5.4c0-.2-.1-.5-.2-.6-.1-.2-.2-.3-.4-.5l-.6-.3c-.2-.1-.4-.1-.7-.1-.4 0-.7.1-1 .2-.3.1-.5.3-.7.5-.2.2-.3.4-.4.7-.1.3-.2.5-.2.8v4.7h.1zm9.4 0h-1.4v-12h1.4zm3.5-3.6c0 .3.1.7.2 1 .1.3.3.6.5.8.2.2.5.4.8.5.3.1.7.2 1.1.2.6 0 1-.1 1.4-.4.4-.3.7-.7.8-1.2h1.5c-.3.9-.7 1.7-1.4 2.1-.7.5-1.5.7-2.5.7-.6 0-1.2-.1-1.7-.3-.5-.2-.9-.5-1.2-.9-.3-.4-.6-.8-.7-1.4-.2-.5-.2-1-.2-1.6 0-.5.1-1 .3-1.5.2-.5.4-.9.8-1.3.3-.4.7-.7 1.2-.9.5-.2 1-.3 1.7-.3s1.2.1 1.7.3c.5.2.9.5 1.2 1 .3.4.6.9.7 1.4.2.5.2 1.1.2 1.8h-6.4zm4.8-1.2c-.1-.6-.3-1.1-.7-1.5-.4-.4-1-.6-1.8-.6-.3 0-.7.1-.9.2-.3.1-.5.3-.7.4-.2.2-.4.4-.5.6-.1.2-.2.5-.2.8h4.8v.1zm3.5-5.9c0-.3.1-.5.3-.6.2-.2.4-.3.6-.3.2 0 .5.1.6.3.2.2.3.4.3.6 0 .2-.1.5-.3.6-.2.2-.4.3-.6.3-.3 0-.5-.1-.6-.3-.2-.1-.3-.4-.3-.6zm1.6 2.7v8h-1.4v-8h1.4zm3.3 1.3h-1.5v-1.2h1.5v-2.2h1.4v2.2h1.7v1.2h-1.7v4.9c0 .3.1.5.2.6.1.1.4.2.7.2h.4c.2 0 .3-.1.5-.1v1.2c-.2.1-.4.1-.6.1-.2 0-.4.1-.6.1-.5 0-.8 0-1.1-.1-.3-.1-.5-.2-.6-.4l-.3-.6c0-.2-.1-.5-.1-.8v-5.1h.1zm10.4-1.3h1.4v8h-1.4v-1.3c-.3.5-.7.9-1.1 1.1-.4.2-.9.3-1.4.3-.6 0-1.2-.1-1.5-.3-.4-.2-.7-.4-.9-.7-.2-.3-.3-.7-.4-1.1-.1-.4-.1-.8-.1-1.2v-4.8h1.4v5.3c0 .2.1.5.2.6.1.2.2.3.4.5s.4.2.6.3c.2.1.4.1.7.1.4 0 .7-.1 1-.2.3-.1.5-.3.7-.5.2-.2.3-.4.4-.7.1-.3.2-.5.2-.8v-4.6h-.2zm5.2 8H343v-8h1.4v1.1c.3-.4.7-.8 1.1-1 .5-.2.9-.3 1.4-.3.7 0 1.2.1 1.6.3.4.2.7.4.9.8.2.3.3.7.4 1.1.1.4.1.8.1 1.2v4.8h-1.4v-5.4c0-.2-.1-.5-.2-.6-.1-.2-.2-.3-.4-.5l-.6-.3c-.2-.1-.4-.1-.7-.1-.4 0-.7.1-1 .2-.3.1-.5.3-.7.5-.2.2-.3.4-.4.7-.1.3-.2.5-.2.8v4.7h.1zm13.7-8h1.4v8.7c0 .5-.1.9-.2 1.3s-.4.8-.7 1.1c-.3.3-.7.6-1.2.7-.5.2-1 .3-1.7.3-.4 0-.8 0-1.2-.1-.4-.1-.8-.2-1.1-.5-.3-.2-.6-.5-.8-.8-.2-.3-.4-.7-.4-1.2h1.4l.3.6c.1.2.3.3.5.4.2.1.4.2.6.2.2 0 .5.1.7.1.3 0 .6 0 .9-.1.3-.1.5-.2.7-.4.2-.2.4-.4.5-.6.1-.2.2-.5.2-.8v-1.8c-.3.4-.7.6-1.1.8-.4.2-.9.2-1.3.2-.6 0-1.2-.1-1.6-.3-.5-.2-.9-.5-1.2-.9-.3-.4-.5-.8-.7-1.3-.2-.5-.2-1-.2-1.6 0-.6.1-1.1.2-1.6s.4-.9.7-1.3c.3-.4.7-.7 1.2-.9.5-.2 1-.3 1.6-.3.5 0 1 .1 1.4.3.4.2.8.5 1.1 1v-1.2zm0 3.9c0-.4-.1-.7-.2-1-.1-.3-.3-.6-.5-.9-.2-.3-.4-.5-.7-.6-.3-.1-.6-.2-1-.2s-.7.1-1 .2c-.3.2-.5.4-.7.6-.2.2-.4.6-.5.9-.1.3-.2.7-.2 1.1 0 .4.1.7.2 1.1.1.4.3.7.5.9.2.3.5.5.8.6.3.2.7.2 1 .2.4 0 .8-.1 1.1-.2.3-.2.5-.4.7-.6.2-.2.3-.6.4-.9.1-.4.1-.7.1-1.2zM423.6 144.4v-11.2h1.5v11.2zm5.6 0h-1.4v-8h1.4v1.1c.3-.4.7-.8 1.1-1 .5-.2.9-.3 1.4-.3.7 0 1.2.1 1.6.3.4.2.7.4.9.8.2.3.3.7.4 1.1.1.4.1.8.1 1.2v4.8h-1.4V139c0-.2-.1-.5-.2-.6-.1-.2-.2-.3-.4-.5l-.6-.3c-.2-.1-.4-.1-.7-.1-.4 0-.7.1-1 .2-.3.1-.5.3-.7.5-.2.2-.3.4-.4.7-.1.3-.2.5-.2.8v4.7h.1zm8.6-6.7h-1.5v-1.2h1.5v-2.2h1.4v2.2h1.7v1.2h-1.7v4.9c0 .3.1.5.2.6.1.1.4.2.7.2h.4c.2 0 .3-.1.5-.1v1.2c-.2.1-.4.1-.6.1-.2 0-.4.1-.6.1-.5 0-.8 0-1.1-.1-.3-.1-.5-.2-.6-.4l-.3-.6c0-.2-.1-.5-.1-.8v-5.1h.1zm6 3.1c0 .3.1.7.2 1 .1.3.3.6.5.8.2.2.5.4.8.5.3.1.7.2 1.1.2.6 0 1-.1 1.4-.4.4-.3.7-.7.8-1.2h1.5c-.3.9-.7 1.7-1.4 2.1-.7.5-1.5.7-2.5.7-.6 0-1.2-.1-1.7-.3-.5-.2-.9-.5-1.2-.9-.3-.4-.6-.8-.7-1.4-.2-.5-.2-1-.2-1.6 0-.5.1-1 .3-1.5.2-.5.4-.9.8-1.3.3-.4.7-.7 1.2-.9.5-.2 1-.3 1.7-.3s1.2.1 1.7.3c.5.2.9.5 1.2 1 .3.4.6.9.7 1.4.2.5.2 1.1.2 1.8h-6.4zm4.9-1.2c-.1-.6-.3-1.1-.7-1.5-.4-.4-1-.6-1.8-.6-.3 0-.7.1-.9.2-.3.1-.5.3-.7.4-.2.1-.4.4-.5.6-.1.2-.2.5-.2.8h4.8v.1zm9.4-3.2h1.4v8.7c0 .5-.1.9-.2 1.3s-.4.8-.7 1.1c-.3.3-.7.6-1.2.7-.5.2-1 .3-1.7.3-.4 0-.8 0-1.2-.1-.4-.1-.8-.2-1.1-.5-.3-.2-.6-.5-.8-.8-.2-.3-.4-.7-.4-1.2h1.4l.3.6c.1.2.3.3.5.4.2.1.4.2.6.2.2 0 .5.1.7.1.3 0 .6 0 .9-.1.3-.1.5-.2.7-.4.2-.2.4-.4.5-.6.1-.2.2-.5.2-.8v-1.8c-.3.4-.7.6-1.1.8-.4.2-.9.2-1.3.2-.6 0-1.2-.1-1.6-.3-.5-.2-.9-.5-1.2-.9-.3-.4-.5-.8-.7-1.3-.2-.5-.2-1-.2-1.6 0-.6.1-1.1.2-1.6s.4-.9.7-1.3c.3-.4.7-.7 1.2-.9.5-.2 1-.3 1.6-.3.5 0 1 .1 1.4.3.4.2.8.5 1.1 1v-1.2zm0 3.9c0-.4-.1-.7-.2-1-.1-.3-.3-.6-.5-.9-.2-.3-.4-.5-.7-.6-.3-.1-.6-.2-1-.2s-.7.1-1 .2c-.3.2-.5.4-.7.6-.2.3-.4.6-.5.9-.1.3-.2.7-.2 1.1 0 .4.1.7.2 1.1.1.4.3.7.5.9.2.3.5.5.8.6.3.2.7.2 1 .2.4 0 .8-.1 1.1-.2.3-.2.5-.4.7-.6.2-.2.3-.6.4-.9.1-.4.1-.7.1-1.2zm5 4.1h-1.4v-8h1.3v.9c.2-.3.4-.6.8-.8.4-.2.7-.3 1.1-.3h.5c.2 0 .3 0 .5.1v1.4c-.2-.1-.3-.1-.5-.1h-.3c-.3 0-.6.1-.9.2-.3.1-.5.3-.6.4-.2.2-.3.4-.4.6-.1.2-.1.5-.1.8v4.8zm7.3-4.7c.4-.1.8-.2 1.1-.2.4-.1.7-.2.9-.3 0-.5-.2-.9-.5-1.2-.3-.2-.8-.4-1.4-.4-.5 0-.9.1-1.2.3-.3.2-.5.5-.6 1h-1.5c0-.4.2-.8.3-1.1.2-.3.4-.6.7-.8.3-.2.6-.4.9-.5.3-.1.7-.2 1.1-.2 1.1 0 2 .2 2.6.7.6.5.9 1.2.9 2.3v3.5c0 .3 0 .4.1.5.1.1.3.1.4 0 .1 0 .2-.1.3-.2l.1 1.1c-.2.1-.3.2-.5.3h-.5c-.1 0-.2 0-.3-.1-.1-.1-.2-.1-.3-.3-.1-.1-.2-.3-.3-.5-.1-.2-.1-.4-.1-.7-.3.4-.7.8-1.2 1.1-.5.3-1.1.4-1.7.4-.4 0-.8 0-1.1-.1-.3-.1-.6-.2-.9-.4-.3-.2-.4-.4-.6-.7-.2-.3-.2-.7-.2-1.1 0-.4.1-.8.3-1.1.2-.3.5-.5.8-.7.3-.2.7-.3 1.1-.4.4 0 .9-.1 1.3-.2zm-2 2.5c0 .4.2.7.5.9.3.2.7.3 1.1.3.4 0 .7-.1 1-.3.3-.2.6-.4.8-.7.2-.3.4-.6.5-.9.1-.3.2-.7.2-1-.2.1-.5.2-.7.2-.3.1-.6.1-.8.2-.3.1-.6.1-.9.2-.3.1-.6.2-.8.3-.2.1-.4.2-.6.4-.2.2-.3.1-.3.4zm8.7-4.5h-1.5v-1.2h1.5v-2.2h1.4v2.2h1.7v1.2h-1.7v4.9c0 .3.1.5.2.6.1.1.4.2.7.2h.4c.2 0 .3-.1.5-.1v1.2c-.2.1-.4.1-.6.1-.2 0-.4.1-.6.1-.5 0-.8 0-1.1-.1-.3-.1-.5-.2-.6-.4l-.3-.6c0-.2-.1-.5-.1-.8v-5.1h.1zm4.8-4c0-.3.1-.5.3-.6.2-.2.4-.3.6-.3.2 0 .5.1.6.3.2.2.3.4.3.6 0 .3-.1.5-.3.6-.2.2-.4.3-.6.3-.3 0-.5-.1-.6-.3-.3-.1-.3-.4-.3-.6zm1.6 2.7v8h-1.4v-8h1.4zm5.9-.1c.7 0 1.3.1 1.8.3.5.2.9.5 1.3.9s.6.8.7 1.3c.2.5.2 1 .2 1.6 0 .5-.1 1.1-.2 1.6-.2.5-.4.9-.7 1.3-.3.4-.8.7-1.3.9-.5.2-1.1.3-1.8.3s-1.2-.1-1.7-.3c-.5-.2-.9-.5-1.3-.9-.3-.4-.6-.8-.7-1.3-.2-.5-.2-1-.2-1.6 0-.6.1-1.1.2-1.6.2-.5.4-1 .7-1.3.3-.4.7-.7 1.3-.9.5-.2 1-.3 1.7-.3zm2.6 4.1c0-.4-.1-.7-.2-1.1-.1-.4-.3-.7-.5-.9-.2-.2-.5-.5-.8-.7-.3-.2-.7-.2-1.2-.2-.4 0-.8.1-1.1.2-.3.2-.6.4-.8.7-.2.3-.4.6-.5.9-.1.4-.2.7-.2 1.1 0 .4.1.7.2 1.1.1.3.3.7.5.9.2.3.5.5.8.6.3.2.7.2 1.1.2.4 0 .8-.1 1.2-.2.3-.2.6-.4.8-.6.2-.3.4-.6.5-.9.1-.3.2-.7.2-1.1zm4.8 4h-1.4v-8h1.4v1.1c.3-.4.7-.8 1.1-1 .5-.2.9-.3 1.4-.3.7 0 1.2.1 1.6.3.4.2.7.4.9.8.2.3.3.7.4 1.1.1.4.1.8.1 1.2v4.8H501V139c0-.2-.1-.5-.2-.6-.1-.2-.2-.3-.4-.5l-.6-.3c-.2-.1-.4-.1-.7-.1-.4 0-.7.1-1 .2-.3.1-.5.3-.7.5-.2.2-.3.4-.4.7-.1.3-.2.5-.2.8v4.7zM423.5 163.6v-11.2h1.4v4.8c.8-.8 1.7-1.6 2.6-2.4.9-.8 1.7-1.6 2.6-2.4h2.2c-.2.2-.4.4-.7.6-.2.2-.5.4-.7.7-.2.2-.5.4-.7.7l-.6.6c-.4.4-.8.7-1.2 1.1-.4.4-.8.8-1.3 1.1l5.6 6.4h-1.9c-.3-.3-.6-.7-.9-1-.3-.3-.6-.7-.9-1-.5-.6-1-1.1-1.5-1.7-.5-.5-1-1.1-1.6-1.7l-.8.7v4.7h-1.6zm14-8.1c.7 0 1.3.1 1.8.3.5.2.9.5 1.3.9.3.4.6.8.7 1.3.2.5.2 1 .2 1.6 0 .5-.1 1.1-.2 1.6-.2.5-.4.9-.7 1.3-.3.4-.8.7-1.3.9-.5.2-1.1.3-1.8.3s-1.2-.1-1.7-.3c-.5-.2-.9-.5-1.3-.9-.3-.4-.6-.8-.7-1.3-.2-.5-.2-1-.2-1.6 0-.6.1-1.1.2-1.6.2-.5.4-1 .7-1.3.3-.4.7-.7 1.3-.9.4-.2 1-.3 1.7-.3zm2.6 4.1c0-.4-.1-.7-.2-1.1-.1-.4-.3-.7-.5-.9-.2-.3-.5-.5-.8-.7-.3-.2-.7-.2-1.2-.2-.4 0-.8.1-1.1.2-.3.2-.6.4-.8.7-.2.3-.4.6-.5.9-.1.4-.2.7-.2 1.1 0 .4.1.7.2 1.1.1.3.3.7.5.9.2.3.5.5.8.6.3.2.7.2 1.1.2.4 0 .8-.1 1.2-.2.3-.2.6-.4.8-.6.2-.3.4-.6.5-.9.1-.3.2-.7.2-1.1zm4.9-2.9c.3-.4.6-.8 1.1-1 .5-.2.9-.3 1.4-.3.6 0 1.1.1 1.5.3.4.2.8.6 1 1 .3-.5.7-.8 1.2-1 .5-.2 1-.3 1.6-.3.6 0 1.1.1 1.5.3.4.2.7.5.9.8.2.3.4.7.4 1.1 0 .4.1.8.1 1.2v4.8h-1.4v-5.2c0-.5-.2-.9-.5-1.2-.4-.3-.8-.4-1.3-.4-.3 0-.6.1-.9.2-.3.1-.5.3-.7.6-.2.2-.3.5-.4.9-.1.3-.1.7-.1 1v4.1H449v-5.2c0-.3-.1-.5-.2-.7-.1-.2-.2-.4-.4-.5l-.6-.3c-.2-.1-.5-.1-.7-.1-.4 0-.7.1-.9.2-.3.1-.5.3-.7.5-.2.2-.3.4-.4.7-.1.3-.1.5-.1.8v4.7h-1.4v-8h1.4v1zm14.7 0c.3-.4.6-.8 1.1-1 .5-.2.9-.3 1.4-.3.6 0 1.1.1 1.5.3.4.2.8.6 1 1 .3-.5.7-.8 1.2-1 .5-.2 1-.3 1.6-.3.6 0 1.1.1 1.5.3.4.2.7.5.9.8.2.3.4.7.4 1.1 0 .4.1.8.1 1.2v4.8H469v-5.2c0-.5-.2-.9-.5-1.2-.4-.3-.8-.4-1.3-.4-.3 0-.6.1-.9.2-.3.1-.5.3-.7.6-.2.2-.3.5-.4.9-.1.3-.1.7-.1 1v4.1h-1.4v-5.2c0-.3-.1-.5-.2-.7-.1-.2-.2-.4-.4-.5l-.6-.3c-.2-.1-.5-.1-.7-.1-.4 0-.7.1-.9.2-.3.1-.5.3-.7.5-.2.2-.3.4-.4.7-.1.3-.1.5-.1.8v4.7h-1.4v-8h1.4v1zm18.9-1.1h1.4v8h-1.4v-1.3c-.3.5-.7.9-1.1 1.1-.4.2-.9.3-1.4.3-.6 0-1.2-.1-1.5-.3-.4-.2-.7-.4-.9-.7-.2-.3-.3-.7-.4-1.1-.1-.4-.1-.8-.1-1.2v-4.8h1.4v5.3c0 .2.1.5.2.6.1.2.2.3.4.5s.4.2.6.3c.2.1.4.1.7.1.4 0 .7-.1 1-.2.3-.1.5-.3.7-.5.2-.2.3-.4.4-.7.1-.3.2-.5.2-.8v-4.6h-.2zm5.2 8h-1.4v-8h1.4v1.1c.3-.4.7-.8 1.1-1 .5-.2.9-.3 1.4-.3.7 0 1.2.1 1.6.3.4.2.7.4.9.8.2.3.3.7.4 1.1.1.4.1.8.1 1.2v4.8h-1.4v-5.4c0-.2-.1-.5-.2-.6-.1-.2-.2-.3-.4-.5l-.6-.3c-.2-.1-.4-.1-.7-.1-.4 0-.7.1-1 .2-.3.1-.5.3-.7.5-.2.2-.3.4-.4.7-.1.3-.2.5-.2.8v4.7h.1zm7.7-10.7c0-.3.1-.5.3-.6.2-.2.4-.3.6-.3.2 0 .5.1.6.3.2.2.3.4.3.6 0 .2-.1.5-.3.6-.2.2-.4.3-.6.3-.3 0-.5-.1-.6-.3-.2-.1-.3-.4-.3-.6zm1.6 2.7v8h-1.4v-8h1.4zm4.2 3.3c.6-.5 1.2-1.1 1.9-1.6s1.3-1.1 1.9-1.6h1.9l-3.8 3.4c.6.7 1.3 1.5 2 2.3.7.8 1.3 1.6 2 2.3h-1.8l-3.3-3.7-.7.6v3.1H496v-11.8h1.4v7h-.1zm10.1 0c.4-.1.8-.2 1.1-.2.4-.1.7-.2.9-.3 0-.5-.2-.9-.5-1.2-.3-.2-.8-.4-1.4-.4-.5 0-.9.1-1.2.3-.3.2-.5.5-.6 1h-1.5c0-.4.2-.8.3-1.1.2-.3.4-.6.7-.8.3-.2.6-.4.9-.5.3-.1.7-.2 1.1-.2 1.1 0 2 .2 2.6.7.6.5.9 1.2.9 2.3v3.5c0 .3 0 .4.1.5.1.1.3.1.4 0 .1 0 .2-.1.3-.2l.1 1.1c-.2.1-.3.2-.5.3h-.5c-.1 0-.2 0-.3-.1-.1-.1-.2-.1-.3-.3-.1-.1-.2-.3-.3-.5-.1-.2-.1-.4-.1-.7-.3.4-.7.8-1.2 1.1-.5.3-1.1.4-1.7.4-.4 0-.8 0-1.1-.1-.3-.1-.6-.2-.9-.4-.3-.2-.4-.4-.6-.7-.2-.3-.2-.7-.2-1.1 0-.4.1-.8.3-1.1.2-.3.5-.5.8-.7.3-.2.7-.3 1.1-.4.5 0 .9-.1 1.3-.2zm-2 2.5c0 .4.2.7.5.9.3.2.7.3 1.1.3.4 0 .7-.1 1-.3.3-.2.6-.4.8-.7.2-.3.4-.6.5-.9.1-.3.2-.7.2-1-.2.1-.5.2-.7.2-.3.1-.6.1-.8.2-.3.1-.6.1-.9.2-.3.1-.6.2-.8.3-.2.1-.4.2-.6.4-.2.2-.3.1-.3.4zm8.7-4.5h-1.5v-1.2h1.5v-2.2h1.4v2.2h1.7v1.2h-1.7v4.9c0 .3.1.5.2.6.1.1.4.2.7.2h.4c.2 0 .3-.1.5-.1v1.2c-.2.1-.4.1-.6.1-.2 0-.4.1-.6.1-.5 0-.8 0-1.1-.1-.3-.1-.5-.2-.6-.4l-.3-.6c0-.2-.1-.5-.1-.8v-5.1h.1zm4.8-4c0-.3.1-.5.3-.6.2-.2.4-.3.6-.3.2 0 .5.1.6.3.2.2.3.4.3.6 0 .2-.1.5-.3.6-.2.2-.4.3-.6.3-.3 0-.5-.1-.6-.3-.2-.1-.3-.4-.3-.6zm1.6 2.7v8h-1.4v-8h1.4zm5.9-.1c.7 0 1.3.1 1.8.3.5.2.9.5 1.3.9.3.4.6.8.7 1.3.2.5.2 1 .2 1.6 0 .5-.1 1.1-.2 1.6-.2.5-.4.9-.7 1.3-.3.4-.8.7-1.3.9-.5.2-1.1.3-1.8.3s-1.2-.1-1.7-.3c-.5-.2-.9-.5-1.2-.9-.3-.4-.6-.8-.7-1.3-.2-.5-.2-1-.2-1.6 0-.6.1-1.1.2-1.6.2-.5.4-1 .7-1.3.3-.4.7-.7 1.2-.9.5-.2 1.1-.3 1.7-.3zm2.6 4.1c0-.4-.1-.7-.2-1.1-.1-.4-.3-.7-.5-.9-.2-.3-.5-.5-.8-.7-.3-.2-.7-.2-1.2-.2-.4 0-.8.1-1.1.2-.3.1-.6.4-.8.7-.2.3-.4.6-.5.9-.1.4-.2.7-.2 1.1 0 .4.1.7.2 1.1.1.3.3.7.5.9.2.3.5.5.8.6.3.2.7.2 1.1.2.4 0 .8-.1 1.2-.2.3-.2.6-.4.8-.6.2-.3.4-.6.5-.9.1-.3.2-.7.2-1.1zm4.9 4h-1.4v-8h1.4v1.1c.3-.4.7-.8 1.1-1 .5-.2.9-.3 1.4-.3.7 0 1.2.1 1.6.3.4.2.7.4.9.8.2.3.3.7.4 1.1.1.4.1.8.1 1.2v4.8H538v-5.4c0-.2-.1-.5-.2-.6-.1-.1-.2-.3-.4-.5s-.4-.2-.6-.3c-.2-.1-.4-.1-.7-.1-.4 0-.7.1-1 .2-.3.1-.5.3-.7.5-.2.2-.3.4-.4.7-.1.3-.2.5-.2.8v4.7h.1zm18.3-8h1.4v8h-1.4v-1.3c-.3.5-.7.9-1.1 1.1-.5.2-.9.3-1.4.3-.6 0-1.2-.1-1.5-.3-.4-.2-.7-.4-.9-.7-.2-.3-.3-.7-.4-1.1-.1-.4-.1-.8-.1-1.2v-4.8h1.4v5.3c0 .2 0 .5.2.6.1.2.2.3.4.5l.6.3c.2.1.4.1.7.1.4 0 .7-.1 1-.2.3-.1.5-.3.7-.5.2-.2.3-.4.4-.7.1-.3.2-.5.2-.8v-4.6h-.2zm5.2 8H556v-8h1.4v1.1c.3-.4.7-.8 1.1-1 .5-.2.9-.3 1.4-.3.7 0 1.2.1 1.6.3.4.2.7.4.9.8.2.3.3.7.4 1.1.1.4.1.8.1 1.2v4.8h-1.4v-5.4c0-.2-.1-.5-.2-.6-.1-.1-.2-.3-.4-.5s-.4-.2-.6-.3c-.2-.1-.4-.1-.7-.1-.4 0-.7.1-1 .2-.3.1-.5.3-.7.5-.2.2-.3.4-.4.7-.1.3-.2.5-.2.8v4.7h.1zm14-1.2c-.2.4-.6.8-1.1 1.1-.5.3-1 .4-1.5.4-.6 0-1.2-.1-1.6-.3-.4-.2-.8-.5-1.1-.9-.3-.4-.5-.8-.6-1.3-.1-.5-.2-1-.2-1.6 0-.6.1-1.1.2-1.6s.4-1 .6-1.3c.3-.4.7-.7 1.1-.9.4-.2 1-.3 1.6-.3.2 0 .5 0 .7.1.2.1.5.2.7.3.2.1.4.3.6.4.2.2.4.4.5.6v-5.2h1.4v12h-1.4v-1.5h.1zm-2.4-5.7c-.4 0-.8.1-1.1.2-.3.2-.5.4-.7.6-.2.2-.3.6-.4.9-.1.3-.1.7-.1 1.1 0 .4 0 .7.1 1.1.1.4.2.7.4.9.2.3.4.5.7.7.3.2.6.2 1 .2s.7-.1 1.1-.3c.3-.2.6-.4.8-.7.2-.3.4-.6.5-1 .1-.4.2-.7.2-1.1 0-.4-.1-.7-.2-1.1-.1-.3-.2-.6-.4-.9-.2-.3-.4-.5-.7-.6-.3-.1-.8 0-1.2 0zM421.9 182.8l4.8-11.2h1.6l4.8 11.2h-1.6l-1.3-3.2h-5.5l-1.3 3.2h-1.5zm7.8-4.5l-2.2-5.2-2.3 5.2h4.5zm10.2-3.5h1.4v8h-1.4v-1.3c-.3.5-.7.9-1.1 1.1-.4.2-.9.3-1.4.3-.6 0-1.2-.1-1.5-.3-.4-.2-.7-.4-.9-.7-.2-.3-.3-.7-.4-1.1-.1-.4-.1-.8-.1-1.2v-4.8h1.4v5.3c0 .2.1.5.2.6.1.2.2.3.4.5s.4.2.6.3c.2.1.4.1.7.1.4 0 .7-.1 1-.2.3-.1.5-.3.7-.5.2-.2.3-.4.4-.7.1-.3.2-.5.2-.8v-4.6h-.2zm3.7 2.1c0-.4.1-.7.3-1 .2-.3.4-.5.7-.7.3-.2.6-.3 1-.4.4-.1.8-.1 1.1-.1.4 0 .8.1 1.2.2.4.1.7.3 1 .5.3.2.5.5.7.8.2.3.3.7.3 1.1h-1.4c0-.2-.1-.4-.2-.6-.1-.2-.2-.3-.4-.4-.2-.1-.4-.2-.6-.2-.2 0-.4-.1-.7-.1-.5 0-.9.1-1.2.3-.3.2-.5.4-.5.7 0 .1.1.3.2.4.1.1.3.2.4.3.1.1.4.2.7.2.3.1.5.1.8.2.3.1.7.2 1 .3.4.1.7.2 1 .4.3.2.5.4.7.7.2.3.3.6.3 1s-.1.8-.3 1.2c-.2.4-.5.6-.8.8-.3.2-.7.4-1.2.5-.4.1-.9.2-1.3.2s-.8-.1-1.2-.2c-.4-.1-.7-.3-1-.5-.3-.2-.6-.5-.8-.9-.2-.4-.3-.8-.3-1.2h1.5c0 .3.1.5.2.7.1.2.3.4.4.5l.6.3c.2.1.5.1.7.1.2 0 .5 0 .7-.1.2 0 .5-.1.6-.2.1-.1.3-.2.5-.4s.2-.3.2-.6c0-.2-.1-.3-.2-.4-.1-.1-.3-.2-.5-.3-.2-.1-.4-.2-.7-.2-.3 0-.5-.1-.8-.2-.4-.1-.7-.2-1.1-.3-.4-.1-.7-.3-1-.4-.3-.2-.6-.4-.7-.7.2-.6.1-.9.1-1.3zm10 5.9h-1.4v-12h1.4v5.2c.1-.2.3-.4.5-.6.2-.2.4-.3.6-.4.2-.1.5-.2.7-.3.2-.1.5-.1.7-.1.6 0 1.2.1 1.6.3.4.2.8.5 1.1.9.3.4.5.8.6 1.3.1.5.2 1 .2 1.6 0 .6-.1 1.1-.2 1.6s-.4.9-.6 1.3c-.3.4-.7.7-1.1.9-.4.2-1 .3-1.6.3-.5 0-1-.1-1.5-.4-.5-.3-.8-.6-1.1-1.1v1.5h.1zm2.4-6.9c-.4 0-.8.1-1.1.2-.3.1-.5.4-.7.6-.2.3-.3.6-.4.9-.1.3-.1.7-.2 1.1 0 .4.1.8.2 1.1.1.3.3.7.5 1 .2.3.5.5.8.7.3.2.7.3 1.1.3.4 0 .8-.1 1-.2.3-.2.5-.4.7-.7.2-.3.3-.6.4-.9.1-.4.1-.7.1-1.1 0-.4 0-.7-.1-1.1-.1-.3-.2-.7-.4-.9-.2-.2-.4-.5-.7-.6-.5-.3-.8-.4-1.2-.4zm5.6-3.8c0-.3.1-.5.3-.6.2-.2.4-.3.6-.3.2 0 .5.1.6.3.2.2.3.4.3.6 0 .2-.1.5-.3.6-.2.2-.4.3-.6.3-.3 0-.5-.1-.6-.3-.3-.1-.3-.4-.3-.6zm1.6 2.7v8h-1.4v-8h1.4zm4.2 8H466v-12h1.4zm8.4-1.2c-.2.4-.6.8-1.1 1.1-.5.3-1 .4-1.5.4-.6 0-1.2-.1-1.6-.3-.4-.2-.8-.5-1.1-.9-.3-.4-.5-.8-.6-1.3-.1-.5-.2-1-.2-1.6 0-.6.1-1.1.2-1.6s.4-1 .6-1.3c.3-.4.7-.7 1.1-.9.4-.2 1-.3 1.6-.3.2 0 .5 0 .7.1.3.1.5.2.7.3.2.1.4.3.6.4.2.2.4.4.5.6v-5.2h1.4v12h-1.4v-1.5h.1zm-2.4-5.7c-.4 0-.8.1-1.1.2-.3.2-.5.4-.7.6-.2.3-.3.6-.4.9-.1.3-.1.7-.1 1.1 0 .4 0 .7.1 1.1.1.4.2.7.4.9.2.3.4.5.7.7.3.2.6.2 1 .2s.7-.1 1.1-.3c.3-.2.6-.4.8-.7.2-.3.4-.6.5-1 .1-.4.2-.7.2-1.1 0-.4-.1-.7-.2-1.1-.1-.3-.2-.6-.4-.9-.2-.3-.4-.5-.7-.6-.4.1-.8 0-1.2 0zm11.3-1.1h1.4v8h-1.4v-1.3c-.3.5-.7.9-1.1 1.1-.4.2-.9.3-1.4.3-.6 0-1.2-.1-1.5-.3-.4-.2-.7-.4-.9-.7-.2-.3-.3-.7-.4-1.1-.1-.4-.1-.8-.1-1.2v-4.8h1.4v5.3c0 .2.1.5.2.6.1.2.2.3.4.5s.4.2.6.3c.2.1.4.1.7.1.4 0 .7-.1 1-.2.3-.1.5-.3.7-.5.2-.2.3-.4.4-.7.1-.3.2-.5.2-.8v-4.6h-.2zm5.2 8h-1.4v-8h1.4v1.1c.3-.4.7-.8 1.1-1 .5-.2.9-.3 1.4-.3.7 0 1.2.1 1.6.3.4.2.7.4.9.8.2.3.3.7.4 1.1.1.4.1.8.1 1.2v4.8H494v-5.4c0-.2-.1-.5-.2-.6-.1-.2-.2-.3-.4-.5l-.6-.3c-.2-.1-.4-.1-.7-.1-.4 0-.7.1-1 .2-.3.1-.5.3-.7.5-.2.2-.3.4-.4.7-.1.3-.2.5-.2.8v4.7h.1zm13.7-8h1.4v8.7c0 .5-.1.9-.2 1.3s-.4.8-.7 1.1c-.3.3-.7.6-1.2.7-.5.2-1 .3-1.7.3-.4 0-.8 0-1.2-.1-.4-.1-.8-.2-1.1-.5-.3-.2-.6-.5-.8-.8-.2-.3-.4-.7-.4-1.2h1.4l.3.6c.1.2.3.3.5.4.2.1.4.2.6.2.2 0 .5.1.7.1.3 0 .6 0 .9-.1.3-.1.5-.2.7-.4.2-.2.4-.4.5-.6.1-.2.2-.5.2-.8v-1.8c-.3.4-.7.6-1.1.8-.4.2-.9.2-1.3.2-.6 0-1.2-.1-1.6-.3-.5-.2-.9-.5-1.2-.9-.3-.4-.5-.8-.7-1.3-.2-.5-.2-1-.2-1.6 0-.6.1-1.1.2-1.6s.4-.9.7-1.3c.3-.4.7-.7 1.2-.9.5-.2 1-.3 1.6-.3.5 0 1 .1 1.4.3.4.2.8.5 1.1 1v-1.2zm0 3.9c0-.4-.1-.7-.2-1-.1-.3-.3-.6-.5-.9-.2-.3-.4-.5-.7-.6-.3-.1-.6-.2-1-.2s-.7.1-1 .2c-.3.2-.5.4-.7.6-.2.2-.4.6-.5.9-.1.3-.2.7-.2 1.1 0 .4.1.7.2 1.1.1.4.3.7.5.9.2.3.5.5.8.6.3.2.7.2 1 .2.4 0 .8-.1 1.1-.2.3-.2.5-.4.7-.6.2-.2.3-.6.4-.9.1-.4.1-.7.1-1.2zM637.3 54.9V43.7h7.4V45h-5.9v3.5h5.5v1.3h-5.5V55h-1.5zm13-8.1c.7 0 1.3.1 1.8.3.5.2.9.5 1.3.9.3.4.6.8.7 1.3.2.5.2 1 .2 1.6 0 .5-.1 1.1-.2 1.6-.2.5-.4.9-.7 1.3-.3.4-.8.7-1.3.9-.5.2-1.1.3-1.8.3s-1.2-.1-1.7-.3c-.5-.2-.9-.5-1.2-.9-.3-.4-.6-.8-.7-1.3-.2-.5-.2-1-.2-1.6 0-.6.1-1.1.2-1.6.2-.5.4-1 .7-1.3.3-.4.7-.7 1.2-.9.5-.2 1.1-.3 1.7-.3zm2.6 4.2c0-.4-.1-.7-.2-1.1-.1-.4-.3-.7-.5-.9-.2-.3-.5-.5-.8-.7-.3-.2-.7-.2-1.2-.2-.4 0-.8.1-1.1.2-.3.2-.6.4-.8.7-.2.3-.4.6-.5.9-.1.3-.2.7-.2 1.1 0 .4 0 .7.2 1.1.1.3.3.7.5.9.2.2.5.5.8.6.3.2.7.2 1.1.2.4 0 .8-.1 1.2-.2.3-.2.6-.4.8-.6.2-.3.4-.6.5-.9.2-.4.2-.7.2-1.1zm4.8 3.9h-1.4v-8h1.3v.9c.2-.3.4-.6.8-.8.4-.2.7-.3 1.1-.3h.5c.2 0 .3 0 .5.1v1.4c-.2-.1-.3-.1-.5-.1h-.3c-.3 0-.6.1-.9.2-.3.1-.5.3-.6.4-.2.2-.3.4-.4.6-.1.2-.1.5-.1.8v4.8zm5.6-6.7h-1.5V47h1.5v-2.2h1.4V47h1.7v1.2h-1.7v4.9c0 .3.1.5.2.6.1.1.4.2.7.2h.4c.1 0 .3-.1.5-.1V55c-.2.1-.4.1-.6.1-.2 0-.4.1-.6.1-.5 0-.8 0-1.1-.1-.3-.1-.5-.2-.6-.4l-.3-.6c0-.2-.1-.5-.1-.8v-5.1h.1zm4.8.8c0-.4.1-.7.3-1 .2-.3.4-.5.7-.7.3-.2.6-.3 1-.4.4-.1.8-.1 1.1-.1.4 0 .8.1 1.2.2.4.1.7.3 1 .5.3.2.5.5.7.8.2.3.3.7.3 1.1H673c0-.2-.1-.4-.2-.6-.1-.2-.2-.3-.4-.4-.2-.1-.4-.2-.6-.2-.2 0-.4-.1-.7-.1-.5 0-.9.1-1.2.3-.3.2-.5.4-.5.7 0 .1.1.3.2.4.1.1.3.2.4.3.2.1.4.2.7.2.3.1.5.1.8.2.3.1.7.2 1 .3.4.1.7.2 1 .4.3.2.5.4.7.7.2.3.3.6.3 1s-.1.8-.3 1.2c-.2.3-.5.6-.8.8-.3.2-.7.4-1.2.5-.4.1-.9.2-1.3.2s-.8-.1-1.2-.2c-.4-.1-.7-.3-1-.5-.3-.2-.6-.5-.8-.9-.2-.4-.3-.8-.3-1.2h1.5c0 .3.1.5.2.7.1.2.3.4.4.5l.6.3c.2.1.5.1.7.1.2 0 .5 0 .7-.1.2 0 .5-.1.6-.2.2-.1.3-.2.5-.4.1-.1.2-.3.2-.6 0-.2-.1-.3-.2-.4-.1-.1-.3-.2-.5-.3-.2-.1-.4-.2-.7-.2-.3 0-.5-.1-.8-.2-.4-.1-.7-.2-1.1-.3-.4-.1-.7-.3-1-.4-.3-.2-.6-.4-.7-.7.2-.5.1-.8.1-1.3zm9.8 2.3c0 .3.1.7.2 1 .1.3.3.6.5.8.2.2.5.4.8.5.3.1.7.2 1.1.2.6 0 1-.1 1.4-.4.4-.3.7-.7.8-1.2h1.5c-.3.9-.8 1.7-1.4 2.1-.7.5-1.5.7-2.5.7-.6 0-1.2-.1-1.7-.3-.5-.2-.9-.5-1.2-.9-.3-.4-.6-.8-.7-1.4-.2-.5-.2-1.1-.2-1.6s.1-1 .3-1.5c.2-.5.4-.9.8-1.3.3-.4.7-.7 1.2-.9.5-.2 1-.3 1.7-.3s1.2.1 1.7.3c.5.2.9.5 1.2 1 .3.5.6.9.7 1.4.2.5.2 1.1.2 1.8h-6.4zm4.9-1.2c-.1-.6-.3-1.1-.7-1.5-.4-.4-1-.6-1.8-.6-.3 0-.7.1-.9.2-.3.1-.5.3-.7.4-.2.2-.4.4-.5.6-.1.2-.2.5-.2.8h4.8v.1zm4.2-1.9h-1.5V47h1.5v-2.2h1.4V47h1.7v1.2h-1.7v4.9c0 .3.1.5.2.6.1.1.4.2.7.2h.4c.1 0 .3-.1.5-.1V55c-.2.1-.4.1-.6.1-.2 0-.4.1-.6.1-.5 0-.8 0-1.1-.1-.3-.1-.5-.2-.6-.4l-.3-.6c0-.2-.1-.5-.1-.8v-5.1h.1zm4.8 5.6l4.7-5.5h-4.7V47h6.6v1.2l-4.7 5.4h4.7v1.3h-6.6zm14-6.9h1.4v8h-1.4v-1.3c-.3.5-.7.9-1.1 1.1-.4.2-.9.3-1.4.3-.6 0-1.2-.1-1.5-.3-.4-.2-.7-.4-.9-.7-.2-.3-.3-.7-.4-1.1-.1-.4-.1-.8-.1-1.2v-4.8h1.4v5.3c0 .2.1.5.2.6.1.1.2.3.4.5l.6.3c.2.1.4.1.7.1.4 0 .7-.1 1-.2.3-.1.5-.3.7-.5.2-.2.3-.4.4-.7.1-.3.2-.5.2-.8v-4.6h-.2zm5.2 8h-1.4v-8h1.4V48c.3-.4.7-.8 1.1-1 .4-.2.9-.3 1.4-.3.7 0 1.2.1 1.6.3.4.2.7.4.9.8.2.3.3.7.4 1.1.1.4.1.8.1 1.2v4.8h-1.4v-5.4c0-.2-.1-.5-.2-.6-.1-.2-.2-.3-.4-.5l-.6-.3c-.2-.1-.4-.1-.7-.1-.4 0-.7.1-1 .2-.3.1-.5.3-.7.5-.2.2-.3.4-.4.7-.1.3-.2.5-.2.8v4.7h.1zm13.7-8h1.4v8.7c0 .5-.1.9-.2 1.3s-.4.8-.7 1.1c-.3.3-.7.6-1.2.7-.5.2-1 .3-1.7.3-.4 0-.8 0-1.2-.1-.4-.1-.8-.2-1.1-.5-.3-.2-.6-.5-.8-.8-.2-.3-.4-.7-.4-1.2h1.4l.3.6c.1.2.3.3.5.4.2.1.4.2.6.2.2 0 .5.1.7.1.3 0 .6 0 .9-.1.3-.1.5-.2.7-.4.2-.2.4-.4.5-.6.1-.2.2-.5.2-.8V54c-.3.4-.7.6-1.1.8-.4.2-.9.2-1.3.2-.6 0-1.2-.1-1.6-.3-.5-.2-.9-.5-1.2-.9-.3-.4-.5-.8-.7-1.3-.2-.5-.2-1-.2-1.6 0-.6.1-1.1.2-1.6s.4-.9.7-1.3c.3-.4.7-.7 1.2-.9.5-.2 1-.3 1.6-.3.5 0 1 .1 1.4.3.4.2.8.5 1.1 1v-1.2zm0 3.9c0-.4-.1-.7-.2-1-.1-.3-.3-.6-.5-.9-.2-.3-.4-.5-.7-.6-.3-.1-.6-.2-1-.2s-.7.1-1 .2c-.3.1-.5.4-.7.6-.2.3-.4.6-.5.9-.1.3-.2.7-.2 1.1 0 .4.1.7.2 1.1.1.3.3.7.5.9.2.3.5.5.8.6.3.1.7.2 1 .2.4 0 .8-.1 1.1-.2.3-.1.5-.4.7-.6.2-.2.3-.6.4-.9.1-.3.1-.7.1-1.2zM636.7 74.1v-1.3l6.8-8.7h-6.8v-1.3h8.6v1.4l-6.8 8.5h6.8V74h-8.6zm10.7-10.7c0-.3.1-.5.3-.6.2-.1.4-.3.6-.3.2 0 .5.1.6.3.1.2.3.4.3.6 0 .3-.1.5-.3.6-.2.2-.4.3-.6.3-.3 0-.5-.1-.6-.3-.2-.1-.3-.3-.3-.6zm1.6 2.7v8h-1.4v-8h1.4zm3.5 4.4c0 .3.1.7.2 1 .1.3.3.6.5.8.2.2.5.4.8.5.3.1.7.2 1.1.2.6 0 1-.1 1.4-.4.4-.3.7-.7.8-1.2h1.5c-.3.9-.8 1.7-1.4 2.1-.7.5-1.5.7-2.5.7-.6 0-1.2-.1-1.7-.3-.5-.2-.9-.5-1.2-.9-.3-.4-.6-.8-.7-1.4-.2-.5-.2-1.1-.2-1.6s.1-1 .3-1.5c.2-.5.4-.9.8-1.3.3-.4.7-.7 1.2-.9.5-.2 1-.3 1.7-.3s1.2.1 1.7.3c.5.2.9.5 1.2 1 .3.5.6.9.7 1.4.2.5.2 1.1.2 1.8h-6.4zm4.9-1.2c-.1-.6-.3-1.1-.7-1.5-.4-.4-1-.6-1.8-.6-.3 0-.7.1-.9.2-.3.1-.5.3-.7.4-.2.2-.4.4-.5.6-.1.2-.2.5-.2.8h4.8v.1zm5 4.8H661v-12h1.4zm3.5-3.6c0 .3.1.7.2 1 .1.3.3.6.5.8.2.2.5.4.8.5.3.1.7.2 1.1.2.6 0 1-.1 1.4-.4.4-.3.7-.7.8-1.2h1.5c-.3.9-.8 1.7-1.4 2.1-.7.5-1.5.7-2.5.7-.6 0-1.2-.1-1.7-.3-.5-.2-.9-.5-1.2-.9-.3-.4-.6-.8-.7-1.4-.2-.5-.2-1.1-.2-1.6s.1-1 .3-1.5c.2-.5.4-.9.8-1.3.3-.4.7-.7 1.2-.9.5-.2 1-.3 1.7-.3s1.2.1 1.7.3c.5.2.9.5 1.2 1 .3.5.6.9.7 1.4.2.5.2 1.1.2 1.8h-6.4zm4.8-1.2c-.1-.6-.3-1.1-.7-1.5-.4-.4-1-.6-1.8-.6-.3 0-.7.1-.9.2-.3.1-.5.3-.7.4-.2.2-.4.4-.5.6-.1.2-.2.5-.2.8h4.8v.1zm14.1-3.2h1.4v8h-1.4v-1.3c-.3.5-.7.9-1.1 1.1-.4.2-.9.3-1.4.3-.6 0-1.2-.1-1.5-.3-.4-.2-.7-.4-.9-.7-.2-.3-.3-.7-.4-1.1-.1-.4-.1-.8-.1-1.2v-4.8h1.4v5.3c0 .2.1.5.2.6.1.1.2.3.4.5l.6.3c.2.1.4.1.7.1.4 0 .7-.1 1-.2.3-.1.5-.3.7-.5.2-.2.3-.4.4-.7.1-.3.2-.5.2-.8v-4.6h-.2zm5.2 8h-1.4v-8h1.4v1.1c.3-.4.7-.8 1.1-1 .4-.2.9-.3 1.4-.3.7 0 1.2.1 1.6.3.4.2.7.4.9.8.2.3.3.7.4 1.1.1.4.1.8.1 1.2v4.8h-1.4v-5.4c0-.2-.1-.5-.2-.6-.1-.2-.2-.3-.4-.5l-.6-.3c-.2-.1-.4-.1-.7-.1-.4 0-.7.1-1 .2-.3.1-.5.3-.7.5-.2.2-.3.4-.4.7-.1.3-.2.5-.2.8v4.7h.1zm13.9-1.2c-.2.4-.6.8-1.1 1.1-.5.3-1 .4-1.5.4-.6 0-1.2-.1-1.6-.3-.4-.2-.8-.5-1.1-.9-.3-.4-.5-.8-.6-1.3-.1-.5-.2-1-.2-1.6 0-.6.1-1.1.2-1.6s.4-1 .6-1.3c.3-.4.7-.7 1.1-.9.4-.2 1-.3 1.6-.3.2 0 .5 0 .7.1.2.1.5.2.7.3.2.1.4.3.6.4.2.2.4.4.5.6v-5.2h1.4v12h-1.4v-1.5h.1zm-2.4-5.6c-.4 0-.8.1-1.1.2-.3.2-.5.4-.7.6-.2.2-.3.6-.4.9-.1.3-.1.7-.1 1.1 0 .4 0 .7.1 1.1.1.4.2.7.4.9.2.2.4.5.7.7.3.2.6.2 1 .2s.7-.1 1.1-.3c.3-.2.6-.4.8-.7.2-.3.4-.6.5-1 .1-.4.2-.7.2-1.1 0-.4-.1-.7-.2-1.1-.1-.3-.2-.6-.4-.9-.2-.3-.4-.5-.7-.6h-1.2zm18.9-1.1c-.2-.8-.5-1.3-1.1-1.7-.5-.4-1.2-.5-1.9-.5s-1.3.1-1.8.4c-.5.3-.9.6-1.2 1-.3.4-.5.9-.7 1.4-.1.5-.2 1.1-.2 1.7 0 .7.1 1.4.2 1.9.2.6.4 1.1.7 1.5.3.4.7.7 1.2.9.5.2 1.1.3 1.7.3.4 0 .7-.1 1-.2.3-.1.6-.3.9-.6.3-.2.5-.5.7-.8.2-.3.3-.7.4-1h1.5c-.1.6-.3 1.1-.6 1.6s-.6.9-1 1.2c-.4.4-.9.6-1.4.8-.5.2-1 .3-1.6.3-.9 0-1.7-.1-2.4-.4-.7-.3-1.2-.7-1.7-1.2-.4-.5-.8-1.2-1-1.9-.2-.7-.3-1.6-.3-2.4 0-.7.1-1.5.3-2.2.2-.7.5-1.3 1-1.8.4-.5 1-1 1.7-1.3.7-.3 1.5-.5 2.4-.5.6 0 1.1.1 1.6.2s1 .4 1.4.7c.4.3.7.7 1 1.1.3.4.4.9.5 1.5h-1.3zm7.2-.2c.7 0 1.3.1 1.8.3.5.2.9.5 1.3.9.3.4.6.8.7 1.3.2.5.2 1 .2 1.6 0 .5-.1 1.1-.2 1.6-.2.5-.4.9-.7 1.3-.3.4-.8.7-1.3.9-.5.2-1.1.3-1.8.3s-1.2-.1-1.7-.3c-.5-.2-.9-.5-1.2-.9-.3-.4-.6-.8-.7-1.3-.2-.5-.2-1-.2-1.6 0-.6.1-1.1.2-1.6.2-.5.4-1 .7-1.3.3-.4.7-.7 1.2-.9.5-.2 1-.3 1.7-.3zm2.6 4.2c0-.4-.1-.7-.2-1.1-.1-.4-.3-.7-.5-.9-.2-.3-.5-.5-.8-.7-.3-.2-.7-.2-1.2-.2-.4 0-.8.1-1.1.2-.3.2-.6.4-.8.7-.2.3-.4.6-.5.9-.1.3-.2.7-.2 1.1 0 .4 0 .7.2 1.1.1.3.3.7.5.9.2.2.5.5.8.6.3.2.7.2 1.1.2.4 0 .8-.1 1.2-.2.3-.2.6-.4.8-.6.2-.3.4-.6.5-.9.1-.4.2-.7.2-1.1zm4.8 3.9h-1.4v-8h1.4v1.1c.3-.4.7-.8 1.1-1 .4-.2.9-.3 1.4-.3.7 0 1.2.1 1.6.3.4.2.7.4.9.8.2.3.3.7.4 1.1.1.4.1.8.1 1.2v4.8h-1.4v-5.4c0-.2-.1-.5-.2-.6-.1-.2-.2-.3-.4-.5l-.6-.3c-.2-.1-.4-.1-.7-.1-.4 0-.7.1-1 .2-.3.1-.5.3-.7.5-.2.2-.3.4-.4.7-.1.3-.2.5-.2.8v4.7h.1zm8.6-6.7h-1.5v-1.2h1.5V64h1.4v2.2h1.7v1.2H745v4.9c0 .3.1.5.2.6.1.1.4.2.7.2h.4c.1 0 .3-.1.5-.1v1.2c-.2.1-.4.1-.6.1-.2 0-.4.1-.6.1-.5 0-.8 0-1.1-.1-.3-.1-.5-.2-.6-.4l-.3-.6c0-.2-.1-.5-.1-.8v-5.1h.1zm6.6 6.7h-1.4v-8h1.3v.9c.2-.3.4-.6.8-.8.4-.2.7-.3 1.1-.3h.5c.2 0 .3 0 .5.1v1.4c-.2-.1-.3-.1-.5-.1h-.3c-.3 0-.6.1-.9.2-.3.1-.5.3-.6.4-.2.2-.3.4-.4.6-.1.2-.1.5-.1.8v4.8zM758 66c.7 0 1.3.1 1.8.3.5.2.9.5 1.3.9.3.4.6.8.7 1.3.2.5.2 1 .2 1.6 0 .5-.1 1.1-.2 1.6-.2.5-.4.9-.7 1.3-.3.4-.8.7-1.3.9-.5.2-1.1.3-1.8.3s-1.2-.1-1.7-.3c-.5-.2-.9-.5-1.2-.9-.3-.4-.6-.8-.7-1.3-.2-.5-.2-1-.2-1.6 0-.6.1-1.1.2-1.6.2-.5.4-1 .7-1.3.3-.4.7-.7 1.2-.9.5-.2 1.1-.3 1.7-.3zm2.6 4.2c0-.4-.1-.7-.2-1.1-.1-.4-.3-.7-.5-.9-.2-.3-.5-.5-.8-.7-.3-.2-.7-.2-1.2-.2-.4 0-.8.1-1.1.2-.3.2-.6.4-.8.7-.2.3-.4.6-.5.9-.1.3-.2.7-.2 1.1 0 .4 0 .7.2 1.1.1.3.3.7.5.9.2.2.5.5.8.6.3.2.7.2 1.1.2.4 0 .8-.1 1.2-.2.3-.2.6-.4.8-.6.2-.3.4-.6.5-.9.2-.4.2-.7.2-1.1zm4.9 3.9h-1.4v-12h1.4zm4.3 0h-1.4v-12h1.4zm2.5-10.7c0-.3.1-.5.3-.6.2-.1.4-.3.6-.3.2 0 .5.1.6.3.1.2.3.4.3.6 0 .3-.1.5-.3.6-.2.2-.4.3-.6.3-.3 0-.5-.1-.6-.3-.2-.1-.3-.3-.3-.6zm1.6 2.7v8h-1.4v-8h1.4zm3.7 8h-1.4v-8h1.4v1.1c.3-.4.7-.8 1.1-1 .4-.2.9-.3 1.4-.3.7 0 1.2.1 1.6.3.4.2.7.4.9.8.2.3.3.7.4 1.1.1.4.1.8.1 1.2v4.8h-1.4v-5.4c0-.2-.1-.5-.2-.6-.1-.2-.2-.3-.4-.5l-.6-.3c-.2-.1-.4-.1-.7-.1-.4 0-.7.1-1 .2-.3.1-.5.3-.7.5-.2.2-.3.4-.4.7-.1.3-.2.5-.2.8v4.7h.1zm13.8-8h1.4v8.7c0 .5-.1.9-.2 1.3s-.4.8-.7 1.1c-.3.3-.7.6-1.2.7-.5.2-1 .3-1.7.3-.4 0-.8 0-1.2-.1-.4-.1-.8-.2-1.1-.5-.3-.2-.6-.5-.8-.8-.2-.3-.4-.7-.4-1.2h1.4l.3.6c.1.2.3.3.5.4.2.1.4.2.6.2.2 0 .5.1.7.1.3 0 .6 0 .9-.1.3-.1.5-.2.7-.4.2-.2.4-.4.5-.6.1-.2.2-.5.2-.8v-1.8c-.3.4-.7.6-1.1.8-.4.2-.9.2-1.3.2-.6 0-1.2-.1-1.6-.3-.5-.2-.9-.5-1.2-.9-.3-.4-.5-.8-.7-1.3-.2-.5-.2-1-.2-1.6 0-.6.1-1.1.2-1.6s.4-.9.7-1.3c.3-.4.7-.7 1.2-.9.5-.2 1-.3 1.6-.3.5 0 1 .1 1.4.3.4.2.8.5 1.1 1v-1.2zm0 3.9c0-.4-.1-.7-.2-1-.1-.3-.3-.6-.5-.9-.2-.3-.4-.5-.7-.6-.3-.1-.6-.2-1-.2s-.7.1-1 .2c-.3.1-.5.4-.7.6-.2.3-.4.6-.5.9-.1.3-.2.7-.2 1.1 0 .4.1.7.2 1.1.1.3.3.7.5.9.2.3.5.5.8.6.3.1.7.2 1 .2.4 0 .8-.1 1.1-.2.3-.1.5-.4.7-.6.2-.2.3-.6.4-.9 0-.3.1-.7.1-1.2zM.9 318.3l6-14h2l6 14h-2l-1.6-4H4.5l-1.6 4h-2zm9.7-5.6l-2.7-6.5-2.8 6.5h5.5zm202.1-102.2v-14h5.7c.6 0 1.2.1 1.7.3.5.2 1 .4 1.4.7.4.3.7.7.9 1.1.2.4.3.9.3 1.4 0 .7-.2 1.2-.6 1.8-.4.5-1 1-1.6 1.3 1 .3 1.7.7 2.2 1.4.5.7.8 1.3.8 2.1 0 .5-.1 1-.3 1.5-.2.5-.5.9-.9 1.3s-.9.7-1.4.9c-.5.2-1.2.3-2 .3h-6.2v-.1zm5.1-8.2c.4 0 .8 0 1.2-.1.4-.1.7-.2 1-.4.3-.2.5-.4.7-.7.2-.3.3-.6.3-.9 0-.3-.1-.6-.2-.9-.2-.3-.4-.5-.7-.6-.3-.1-.6-.3-1-.4-.4-.1-.8-.1-1.2-.1h-3.3v4.2h3.2v-.1zm-3.3 6.6h3.4c.5 0 1 0 1.5-.1s.8-.2 1.2-.4c.3-.2.6-.4.8-.8.2-.3.3-.7.3-1.1 0-.4-.1-.8-.3-1.1-.2-.3-.5-.6-.9-.8-.4-.2-.9-.4-1.4-.5-.5-.1-1.1-.2-1.8-.2h-2.7v5h-.1zM432.6 91.7c-.2-1-.7-1.7-1.3-2.1-.7-.5-1.5-.7-2.4-.7-.9 0-1.6.2-2.2.5-.6.3-1.1.7-1.5 1.2-.4.5-.7 1.1-.9 1.8-.2.7-.3 1.4-.3 2.1 0 .9.1 1.7.3 2.4.2.7.5 1.3.9 1.9.4.5.9.9 1.5 1.2.6.3 1.3.4 2.1.4.5 0 .9-.1 1.3-.3.4-.2.8-.4 1.1-.7.3-.3.6-.7.9-1.1.2-.4.4-.8.5-1.3h1.9c-.1.7-.4 1.4-.7 2-.3.6-.8 1.1-1.3 1.6s-1.1.8-1.7 1c-.6.2-1.3.4-2 .4-1.1 0-2.1-.2-3-.5-.8-.4-1.5-.9-2.1-1.5-.6-.6-1-1.5-1.2-2.4-.2-.9-.4-1.9-.4-3.1 0-.9.1-1.8.4-2.7.3-.9.7-1.6 1.2-2.3.6-.7 1.2-1.2 2.1-1.6.9-.4 1.8-.6 3-.6.7 0 1.4.1 2.1.3.6.2 1.2.5 1.7.9s.9.8 1.2 1.4c.3.5.5 1.2.6 1.8h-1.8zM642.3.9h1.6c.9.1 1.7.3 2.5.7.7.4 1.4.9 1.9 1.5s.9 1.3 1.2 2.1c.3.8.4 1.7.4 2.6 0 1.1-.2 2-.5 2.9-.3.9-.8 1.6-1.5 2.2-.7.6-1.4 1.1-2.4 1.4-.9.3-2 .5-3.1.5h-4.7V.8h4.6v.1zm0 12.4c1.9 0 3.3-.5 4.2-1.4.9-.9 1.4-2.3 1.4-4 0-.9-.1-1.7-.4-2.4-.3-.7-.7-1.2-1.3-1.7-.5-.4-1.2-.8-2-1-.8-.2-1.6-.3-2.6-.3h-2.3v10.8h3zM403.7 226.2H211v-2h187.6L374 214.1l.8-1.9 29.3 12.1-.4.9zm-210 112.1H1v-2h187.6L164 326.2l.8-1.8 29.3 12-.4.9zm421-218.1H422v-2h187.7L585 108.1l.8-1.9 29.3 12.1-.4.9zm214-89.5H636v-2h187.6L799 18.5l.8-1.8 29.3 12-.4 1zM1 499.3h193.1v2H1zm210 0h193.1v2H211zm211 0h193.1v2H422zm214 0h190v2H636zM.9 552.8l4.8-11.2h1.6l4.8 11.2h-1.6l-1.3-3.2H3.7l-1.3 3.2H.9zm7.8-4.5l-2.2-5.2-2.3 5.2h4.5zm3.8.7v-1.4h9.1v1.4zm14.4-7.5h1.2c.7.1 1.4.2 2 .5.6.3 1.1.7 1.5 1.2.4.5.7 1.1.9 1.7.2.6.3 1.4.3 2.1 0 .8-.1 1.6-.4 2.3-.3.7-.7 1.3-1.2 1.8s-1.1.9-1.9 1.1c-.7.3-1.6.4-2.5.4H23v-11.2h3.9v.1zm0 10c1.5 0 2.6-.4 3.4-1.1.7-.8 1.1-1.8 1.1-3.2 0-.8-.1-1.4-.4-1.9-.2-.5-.6-1-1-1.3-.4-.4-1-.6-1.6-.8-.6-.2-1.3-.2-2.1-.2h-1.8v8.6h2.4v-.1zm21.9-4.3h-8.7V546h8.7v1.2zm0 3.2h-8.7v-1.2h8.7v1.2zm11.9-.2h-5.4v-1.4l5.2-7.2h1.6v7.4h1.8v1.2h-1.8v2.6h-1.4v-2.6zm0-6.7c-.3.5-.7.9-1 1.4-.3.4-.7.9-1 1.3-.3.4-.7.9-1 1.4-.3.5-.7.9-1 1.4h4v-5.5zm4.1 5.5v-1.4h9.1v1.4zm14.5-7.6c.5 0 1 .1 1.4.2.4.1.8.4 1.1.6.3.2.6.6.8.9.2.4.3.7.3 1.2h-1.5c0-.2-.1-.4-.2-.6-.1-.2-.3-.4-.4-.5-.1-.1-.4-.3-.6-.4-.2-.1-.5-.1-.8-.1-.6 0-1.1.1-1.4.4-.3.3-.7.7-.9 1.1-.2.4-.4.9-.5 1.5-.1.6-.1 1.1-.2 1.6.1-.3.3-.5.5-.7.2-.2.5-.4.7-.5.2-.1.5-.3.8-.3.3 0 .6-.1.8-.1.6 0 1.1.1 1.6.3.5.2.9.4 1.2.8.3.3.6.7.7 1.2.2.5.3.9.3 1.5 0 .5-.1 1-.3 1.4-.2.4-.4.8-.8 1.2-.3.3-.7.6-1.2.8-.5.2-1 .3-1.6.3-.8 0-1.4-.1-2-.4-.5-.2-1-.6-1.3-1-.3-.4-.6-1-.7-1.6-.1-.6-.2-1.3-.2-2.1 0-.9.1-1.8.2-2.6s.3-1.5.7-2c.3-.6.8-1 1.3-1.3.5-.3 1.3-.8 2.2-.8zm-.1 5.5c-.4 0-.8.1-1.1.2-.3.1-.6.3-.8.6-.2.2-.4.5-.5.8-.1.3-.2.6-.2.9 0 .3.1.7.2.9.1.2.3.5.5.8.2.2.5.4.8.5.3.1.6.2 1 .2s.7-.1 1-.2c.3-.1.5-.3.8-.5.2-.2.4-.5.5-.8.1-.3.2-.6.2-.9 0-.3 0-.6-.1-.9-.1-.3-.2-.6-.4-.8-.2-.2-.4-.4-.7-.5-.5-.3-.8-.3-1.2-.3zm11 5.9v-11.2h1.9l4.2 9.2c.7-1.5 1.4-3 2.1-4.6.7-1.5 1.4-3.1 2.1-4.6h1.9v11.2H101V544c-.7 1.5-1.3 2.9-2 4.4-.7 1.5-1.3 2.9-2 4.4h-1.3l-4.1-8.8v8.8h-1.4zm18.5-8.2c.7 0 1.3.1 1.8.3.5.2.9.5 1.3.9.3.4.6.8.7 1.3.2.5.2 1 .2 1.6 0 .5-.1 1.1-.2 1.6-.2.5-.4.9-.7 1.3-.3.4-.8.7-1.3.9-.5.2-1.1.3-1.8.3s-1.2-.1-1.7-.3c-.5-.2-.9-.5-1.3-.9-.3-.4-.6-.8-.7-1.3-.2-.5-.2-1-.2-1.6 0-.6.1-1.1.2-1.6.2-.5.4-1 .7-1.3.3-.4.7-.7 1.3-.9.4-.2 1-.3 1.7-.3zm2.6 4.2c0-.4-.1-.7-.2-1.1-.1-.4-.3-.7-.5-.9-.2-.3-.5-.5-.8-.7-.3-.2-.7-.2-1.2-.2-.4 0-.8.1-1.1.2-.3.2-.6.4-.8.7-.2.3-.4.6-.5.9-.1.4-.2.7-.2 1.1 0 .4.1.7.2 1.1.1.3.3.7.5.9.2.3.5.5.8.6.3.2.7.2 1.1.2.4 0 .8-.1 1.2-.2.3-.2.6-.4.8-.6.2-.3.4-.6.5-.9.1-.4.2-.7.2-1.1zm4.8 4h-1.4v-8h1.4v1.1c.3-.4.7-.8 1.1-1 .5-.2.9-.3 1.4-.3.7 0 1.2.1 1.6.3.4.2.7.4.9.8.2.3.3.7.4 1.1.1.4.1.8.1 1.2v4.8h-1.4v-5.4c0-.2-.1-.5-.2-.6-.1-.2-.2-.3-.4-.5l-.6-.3c-.2-.1-.4-.1-.7-.1-.4 0-.7.1-1 .2-.3.1-.5.3-.7.5-.2.2-.3.4-.4.7-.1.3-.2.5-.2.8v4.7h.1zM127 548c.4-.1.8-.2 1.1-.2.4-.1.7-.2.9-.3 0-.5-.2-.9-.5-1.2-.3-.2-.8-.4-1.4-.4-.5 0-.9.1-1.2.3-.3.2-.5.5-.6 1h-1.5c0-.4.2-.8.3-1.1.2-.3.4-.6.7-.8.3-.2.6-.4.9-.5.3-.1.7-.2 1.1-.2 1.1 0 2 .2 2.6.7.6.5.9 1.2.9 2.3v3.5c0 .3 0 .4.1.5.1.1.3.1.4 0 .1 0 .2-.1.3-.2l.1 1.1c-.2.1-.3.2-.5.3h-.5c-.1 0-.2 0-.3-.1-.1-.1-.2-.1-.3-.3-.1-.1-.2-.3-.3-.5-.1-.2-.1-.4-.1-.7-.3.4-.7.8-1.2 1.1-.5.3-1.1.4-1.7.4-.4 0-.8 0-1.1-.1-.3-.1-.6-.2-.9-.4-.3-.2-.4-.4-.6-.7-.2-.3-.2-.7-.2-1.1 0-.4.1-.8.3-1.1.2-.3.5-.5.8-.7.3-.2.7-.3 1.1-.4.5 0 .9-.1 1.3-.2zm-2 2.5c0 .4.2.7.5.9.3.2.7.3 1.1.3.4 0 .7-.1 1-.3.3-.2.6-.4.8-.7.2-.3.4-.6.5-.9.1-.3.2-.7.2-1-.2.1-.5.2-.7.2-.3.1-.6.1-.8.2-.3.1-.6.1-.9.2-.3.1-.6.2-.8.3-.2.1-.4.2-.6.4-.2.2-.3.2-.3.4zm8.7-4.5h-1.5v-1.2h1.5v-2.2h1.4v2.2h1.7v1.2h-1.7v4.9c0 .3.1.5.2.6.1.1.4.2.7.2h.4c.2 0 .3-.1.5-.1v1.2c-.2.1-.4.1-.6.1-.2 0-.4.1-.6.1-.5 0-.8 0-1.1-.1-.3-.1-.5-.2-.6-.4l-.3-.6c0-.2-.1-.5-.1-.8V546h.1zm6.1 3.1c0 .3.1.7.2 1 .1.3.3.6.5.8.2.2.5.4.8.5.3.1.7.2 1.1.2.6 0 1-.1 1.4-.4.4-.3.7-.7.8-1.2h1.5c-.3.9-.7 1.7-1.4 2.1-.7.5-1.5.7-2.5.7-.6 0-1.2-.1-1.7-.3-.5-.2-.9-.5-1.2-.9-.3-.4-.6-.8-.7-1.4-.2-.5-.2-1-.2-1.6 0-.5.1-1 .3-1.5.2-.5.4-.9.8-1.3.3-.4.7-.7 1.2-.9.5-.2 1-.3 1.7-.3s1.2.1 1.7.3c.5.2.9.5 1.2 1 .3.4.6.9.7 1.4.2.5.2 1.1.2 1.8h-6.4zm4.8-1.1c-.1-.6-.3-1.1-.7-1.5-.4-.4-1-.6-1.8-.6-.3 0-.7.1-.9.2-.3.1-.5.3-.7.4-.2.2-.4.4-.5.6-.1.2-.2.5-.2.8h4.8v.1z"/></g></svg>